<svg width="75" height="75" viewBox="0 0 75 75" fill="none" xmlns="http://www.w3.org/2000/svg">
<g clip-path="url(#clip0_1_174)">
<path d="M61.1625 69.1651H37.5H13.8372C-1.58905 69.1651 -6.76318 34.5833 21.4528 25.3415C25.1312 24.1367 28.9809 23.5374 32.8509 23.4768L37.5 23.4038L42.1491 23.4768C46.0194 23.5375 49.8689 24.1367 53.5472 25.3415C81.7629 34.5832 76.5888 69.1651 61.1625 69.1651Z" fill="#CF8F3D"/>
<path d="M72.4588 59.4492C70.504 65.1302 66.4316 69.1649 61.1627 69.1649H37.5H13.8372C8.56832 69.1649 4.49606 65.1303 2.54108 59.4492C12.7469 57.5774 24.7091 56.5003 37.5 56.5003C50.2906 56.5003 62.2528 57.5776 72.4588 59.4492Z" fill="#B76700"/>
<path d="M71.4144 37.8387C67.8152 31.4452 61.7726 26.7095 53.9394 24.1438C50.2317 22.9293 46.2713 22.281 42.1686 22.2166L37.5195 22.1436C37.5063 22.1435 37.493 22.1435 37.4798 22.1436L34.1099 22.1963C34.1706 22.121 34.2303 22.0447 34.2929 21.9713C36.2842 19.634 37.4522 16.454 37.4982 13.247C37.5472 9.81855 36.3434 6.84961 34.1083 4.8873C33.5842 4.4272 32.788 4.4811 32.33 5.00786C31.8721 5.53462 31.9257 6.33457 32.4498 6.79497C34.1183 8.25981 35.0161 10.5382 34.9778 13.2108C34.9403 15.8361 33.9927 18.4289 32.3782 20.3243C31.8675 20.9237 31.4082 21.5834 31.0043 22.286C29.1942 22.3923 27.4157 22.6144 25.6786 22.9504C25.9075 22.6094 26.1521 22.281 26.4157 21.9715C28.407 19.6342 29.5753 16.4542 29.6213 13.2472C29.6706 9.8187 28.4664 6.84976 26.2314 4.88745C25.7073 4.42734 24.9111 4.48125 24.4531 5.00801C23.9952 5.53477 24.0488 6.33472 24.5729 6.79512C26.2414 8.25996 27.1392 10.5384 27.1009 13.211C27.0634 15.8363 26.1157 18.4289 24.5008 20.3246C23.6527 21.3205 22.9441 22.4815 22.4018 23.7328C21.9513 23.8619 21.5038 23.9985 21.0602 24.1438C13.2269 26.7095 7.18432 31.4451 3.5852 37.8387C0.515328 43.2929 -0.637944 49.6651 0.338228 55.7813C1.73613 64.5403 7.16103 70.4253 13.8373 70.4253H61.1628C67.8391 70.4253 73.2639 64.5403 74.6621 55.7813C75.6378 49.6651 74.4845 43.2929 71.4144 37.8387ZM72.1726 55.384C70.9774 62.873 66.5527 67.9047 61.1626 67.9047H13.8371C8.44687 67.9047 4.02231 62.8731 2.82714 55.384C1.13349 44.7719 6.25664 31.829 21.4758 26.6641C20.6719 30.5861 21.4683 34.8152 24.573 37.5407C24.812 37.7503 25.1076 37.8535 25.4017 37.8535C25.7528 37.8535 26.1023 37.7068 26.3514 37.4202C26.8093 36.8934 26.7557 36.0935 26.2314 35.6331C24.5269 34.1367 23.6281 31.8349 23.7004 29.1511C23.7306 28.0292 23.9307 26.9082 24.2783 25.8398C26.0773 25.3913 27.9315 25.0778 29.8282 24.9016C28.3595 29.2641 28.8724 34.4 32.4499 37.5407C32.6889 37.7503 32.9845 37.8535 33.2786 37.8535C33.6297 37.8535 33.9792 37.7068 34.2283 37.4202C34.6862 36.8934 34.6326 36.0935 34.1083 35.6331C32.4037 34.1366 31.5047 31.8347 31.577 29.1511C31.6179 27.6376 31.9671 26.1259 32.5727 24.7437C32.6722 24.7414 32.7712 24.7378 32.8708 24.7362L37.5 24.6636L42.1292 24.7362C45.9787 24.7967 49.6881 25.403 53.1549 26.5386C55.5677 27.3287 57.7308 28.3126 59.658 29.4505L53.2683 35.719C52.7701 36.2077 52.7606 37.0094 53.2469 37.51C53.4939 37.7643 53.8213 37.8917 54.1488 37.8917C54.4663 37.8917 54.784 37.772 55.0292 37.5313L61.8252 30.8644C63.2039 31.856 64.4374 32.9348 65.533 34.0811L53.7138 45.8436C53.2192 46.3358 53.2153 47.1376 53.7051 47.6347C53.9515 47.8849 54.276 48.01 54.6007 48.01C54.9211 48.01 55.2417 47.8879 55.4875 47.6433L67.1908 35.996C68.1861 37.2712 69.0311 38.6096 69.7355 39.9886L63.2783 46.587C62.7902 47.0858 62.7968 47.8876 63.2933 48.3781C63.5388 48.6205 63.8578 48.7415 64.1768 48.7415C64.5029 48.7415 64.8288 48.6151 65.0754 48.3631L70.8382 42.4742C72.4545 46.7317 72.8347 51.236 72.1726 55.384ZM63.0769 57.9838C62.9968 58.6751 62.3722 59.1713 61.6802 59.0909C54.0439 58.2081 45.9899 57.7605 37.7421 57.7605C29.3171 57.7605 21.1012 58.227 13.3229 59.1472C13.2728 59.1532 13.2227 59.156 13.1733 59.156C12.5433 59.156 11.9993 58.6844 11.9232 58.0436C11.8414 57.3523 12.3354 56.7256 13.0269 56.6439C20.9029 55.7123 29.2182 55.2397 37.7421 55.2397C46.0865 55.2397 54.2379 55.6929 61.9698 56.5868C62.661 56.667 63.1567 57.2924 63.0769 57.9838Z" fill="black"/>
</g>
<defs>
<clipPath id="clip0_1_174">
<rect width="75" height="75" fill="white"/>
</clipPath>
</defs>
</svg>
