<svg width="281" height="31" viewBox="0 0 281 31" fill="none" xmlns="http://www.w3.org/2000/svg">
<path d="M18.26 17.12L18.98 18.2C17.36 20.04 15.74 21.4 14.12 22.28C12.5 23.16 10.76 23.6 8.9 23.6C6.6 23.6 4.55 22.59 2.75 20.57C0.97 18.55 0.0800001 16.26 0.0800001 13.7C0.0800001 10.48 1.29 7.64 3.71 5.18C6.15 2.7 8.98 1.46 12.2 1.46C13.48 1.46 15.08 1.78 17 2.42L16.64 6.62H15.62C15.62 5.88 15.37 5.3 14.87 4.88C14.37 4.46 13.8 4.2 13.16 4.1C12.54 3.98 11.76 3.92 10.82 3.92C8.5 3.92 6.48 4.6 4.76 5.96C3.04 7.32 2.18 9.18 2.18 11.54C2.18 13.26 2.5 14.79 3.14 16.13C3.78 17.47 4.58 18.5 5.54 19.22C7.44 20.62 9.26 21.32 11 21.32C12.08 21.32 13.28 20.97 14.6 20.27C15.92 19.57 17.14 18.52 18.26 17.12ZM27.0287 23H21.0287V22.16H21.4487C21.8887 22.16 22.2087 22.07 22.4087 21.89C22.6087 21.69 22.7087 21.36 22.7087 20.9V3.2C22.7087 2.82 22.5787 2.55 22.3187 2.39C22.0587 2.21 21.6087 2.12 20.9687 2.12V1.28C21.3687 1.28 21.9787 1.17 22.7987 0.95C23.6387 0.729999 24.2487 0.499999 24.6287 0.26L25.1687 0.139999V20.84C25.1687 21.16 25.1787 21.39 25.1987 21.53C25.2387 21.67 25.3587 21.81 25.5587 21.95C25.7587 22.09 26.0687 22.16 26.4887 22.16H27.0287V23ZM35.2583 23.42C33.4983 23.42 32.0283 22.76 30.8483 21.44C29.6683 20.12 29.0783 18.58 29.0783 16.82C29.0783 14.58 29.9183 12.65 31.5983 11.03C33.2983 9.41 35.0883 8.6 36.9683 8.6C38.8483 8.6 40.3583 9.27 41.4983 10.61C42.6583 11.93 43.2383 13.46 43.2383 15.2C43.2383 17.38 42.4283 19.3 40.8083 20.96C39.2083 22.6 37.3583 23.42 35.2583 23.42ZM31.1783 15.2C31.1783 17.06 31.7383 18.61 32.8583 19.85C33.9983 21.07 35.2683 21.68 36.6683 21.68C38.0883 21.68 39.1983 21.15 39.9983 20.09C40.7983 19.03 41.1983 17.94 41.1983 16.82C41.1983 15.12 40.6683 13.64 39.6083 12.38C38.5683 11.1 37.2983 10.46 35.7983 10.46C34.2983 10.46 33.1483 10.97 32.3483 11.99C31.5683 12.99 31.1783 14.06 31.1783 15.2ZM60.1679 23H55.8479V19.46C55.3879 20.72 54.6779 21.7 53.7179 22.4C52.7579 23.08 51.5879 23.42 50.2079 23.42C49.4879 23.42 48.8779 23.26 48.3779 22.94C47.8779 22.62 47.5179 22.21 47.2979 21.71C46.9179 20.85 46.7279 20 46.7279 19.16V12.02C46.7279 11.1 46.1479 10.64 44.9879 10.64V9.8C45.3879 9.8 45.9879 9.69 46.7879 9.47C47.6079 9.25 48.2079 9.02 48.5879 8.78L49.1279 8.72V18.62C49.1279 19.52 49.3379 20.21 49.7579 20.69C50.1979 21.15 50.8079 21.38 51.5879 21.38C52.7079 21.38 53.6979 20.78 54.5579 19.58C55.4179 18.38 55.8479 17.48 55.8479 16.88V12.02C55.8479 11.1 55.2679 10.64 54.1079 10.64V9.8C54.5479 9.8 55.1679 9.69 55.9679 9.47C56.7879 9.25 57.3879 9.02 57.7679 8.78L58.3079 8.72V20.96C58.3079 21.24 58.3279 21.45 58.3679 21.59C58.4679 21.97 58.8879 22.16 59.6279 22.16H60.1679V23ZM76.3773 23H72.0573V19.52C71.6373 20.66 70.9573 21.6 70.0173 22.34C69.0773 23.06 67.9073 23.42 66.5073 23.42C65.1273 23.42 64.0373 22.97 63.2373 22.07C62.4373 21.17 62.0373 19.96 62.0373 18.44C62.0373 15.62 62.7673 13.28 64.2273 11.42C65.7073 9.54 67.5173 8.6 69.6573 8.6C70.1373 8.6 70.9373 8.8 72.0573 9.2V3.2C72.0573 2.82 71.9273 2.55 71.6673 2.39C71.4073 2.21 70.9573 2.12 70.3173 2.12V1.28C70.7373 1.28 71.3573 1.17 72.1773 0.95C72.9973 0.729999 73.5773 0.499999 73.9173 0.26L74.4573 0.139999V20.96C74.4573 21.34 74.5273 21.62 74.6673 21.8C74.8273 21.96 75.1973 22.04 75.7773 22.04H76.3773V23ZM72.0573 17.06V11.72C71.9773 11.6 71.8573 11.44 71.6973 11.24C71.5373 11.04 71.1973 10.78 70.6773 10.46C70.1773 10.14 69.6573 9.98 69.1173 9.98C67.6573 9.98 66.4373 10.67 65.4573 12.05C64.4973 13.43 64.0173 15.18 64.0173 17.3C64.0173 18.48 64.3673 19.46 65.0673 20.24C65.7873 21 66.6973 21.38 67.7973 21.38C68.9173 21.38 69.9073 20.78 70.7673 19.58C71.6273 18.36 72.0573 17.52 72.0573 17.06ZM99.1142 22.7C99.0942 22.7 99.0442 22.7 98.9642 22.7C98.8842 22.7 98.5742 22.9 98.0342 23.3L91.1342 5.24L89.6942 20.96C89.6542 21.28 89.8042 21.55 90.1442 21.77C90.4842 21.99 90.9542 22.1 91.5542 22.1H92.8142V23H85.6142V22.1H86.5742C87.7342 22.1 88.3542 21.66 88.4342 20.78L89.9342 4.22C89.9742 3.84 89.8342 3.53 89.5142 3.29C89.2142 3.03 88.7342 2.9 88.0742 2.9H87.1142V2H92.7542L99.1742 18.92L105.654 2H111.054V2.84H109.854C108.894 2.84 108.414 3.21 108.414 3.95C108.414 4.01 108.414 4.08 108.414 4.16L109.794 20.78C109.834 21.24 109.944 21.58 110.124 21.8C110.324 22 110.674 22.1 111.174 22.1H112.374V23H104.694V22.1H105.714C106.274 22.1 106.654 22.01 106.854 21.83C107.054 21.65 107.154 21.46 107.154 21.26C107.154 21.04 107.154 20.88 107.154 20.78L105.834 5.06L99.1142 22.7ZM127.186 23H122.866V20.6C121.866 21.68 121.036 22.42 120.376 22.82C119.716 23.22 118.816 23.42 117.676 23.42C116.556 23.42 115.676 23.16 115.036 22.64C114.416 22.1 114.106 21.35 114.106 20.39C114.106 19.43 114.516 18.5 115.336 17.6C116.176 16.68 117.146 15.99 118.246 15.53C119.366 15.05 120.346 14.69 121.186 14.45C122.026 14.19 122.586 14.06 122.866 14.06V13.4C122.866 11.52 122.086 10.58 120.526 10.58C119.446 10.58 118.436 10.81 117.496 11.27C116.576 11.73 115.886 12.32 115.426 13.04L114.826 12.5C116.166 9.9 118.486 8.6 121.786 8.6C122.626 8.6 123.316 8.83 123.856 9.29C124.416 9.73 124.786 10.25 124.966 10.85C125.166 11.45 125.266 12.12 125.266 12.86V20.96C125.266 21.22 125.286 21.42 125.326 21.56C125.366 21.7 125.486 21.84 125.686 21.98C125.906 22.1 126.226 22.16 126.646 22.16H127.186V23ZM122.866 18.92V15.26C121.306 15.56 119.856 16.16 118.516 17.06C117.176 17.96 116.506 18.94 116.506 20C116.506 20.42 116.706 20.79 117.106 21.11C117.526 21.41 118.036 21.56 118.636 21.56C119.256 21.56 119.986 21.29 120.826 20.75C121.666 20.19 122.346 19.58 122.866 18.92ZM135.999 23H129.519V22.16H129.999C130.539 22.16 130.879 22.07 131.019 21.89C131.179 21.71 131.259 21.42 131.259 21.02V12.02C131.259 11.64 131.129 11.37 130.869 11.21C130.629 11.03 130.179 10.94 129.519 10.94V10.1C129.919 10.1 130.519 9.96 131.319 9.68C132.139 9.38 132.759 9.1 133.179 8.84L133.719 8.72V12.44C134.439 10.86 135.259 9.82 136.179 9.32C137.099 8.8 138.459 8.54 140.259 8.54L140.079 12.02H139.179C139.179 11.74 139.069 11.47 138.849 11.21C138.649 10.95 138.319 10.82 137.859 10.82C136.859 10.82 135.919 11.36 135.039 12.44C134.159 13.52 133.719 14.56 133.719 15.56V20.84C133.719 21.16 133.729 21.39 133.749 21.53C133.789 21.67 133.909 21.81 134.109 21.95C134.309 22.09 134.619 22.16 135.039 22.16H135.999V23ZM157.07 23H153.35L146.87 15.02L145.67 16.04V20.84C145.67 21.16 145.68 21.39 145.7 21.53C145.74 21.67 145.86 21.81 146.06 21.95C146.28 22.09 146.61 22.16 147.05 22.16H147.59V23H141.53V22.16H141.89C142.33 22.16 142.65 22.09 142.85 21.95C143.07 21.81 143.19 21.67 143.21 21.53C143.25 21.39 143.27 21.16 143.27 20.84V3.2C143.27 2.82 143.13 2.55 142.85 2.39C142.59 2.21 142.13 2.12 141.47 2.12V1.28C141.91 1.28 142.54 1.17 143.36 0.95C144.2 0.729999 144.81 0.499999 145.19 0.26L145.67 0.139999V14.3L150.17 10.7C150.49 10.44 150.65 10.26 150.65 10.16C150.65 10 150.41 9.92 149.93 9.92H149.69V9.02H154.73V9.92H154.43C153.67 9.92 153.05 10.12 152.57 10.52L148.85 13.58L154.73 20.84C155.39 21.72 155.95 22.16 156.41 22.16H157.07V23ZM169.309 19.34L169.849 19.88C168.569 22.24 166.269 23.42 162.949 23.42C161.409 23.42 160.089 22.74 158.989 21.38C157.909 20.02 157.369 18.5 157.369 16.82C157.369 14.56 158.099 12.63 159.559 11.03C161.039 9.41 162.829 8.6 164.929 8.6C165.929 8.6 166.809 8.89 167.569 9.47C168.929 10.53 169.609 11.9 169.609 13.58C169.609 13.82 169.559 14.11 169.459 14.45C169.379 14.79 169.309 14.96 169.249 14.96L159.589 15.26C159.589 16.82 160.079 18.26 161.059 19.58C162.039 20.9 163.229 21.56 164.629 21.56C165.629 21.56 166.549 21.36 167.389 20.96C168.249 20.54 168.889 20 169.309 19.34ZM159.889 14.06L166.909 13.76C166.949 13.76 166.969 13.58 166.969 13.22C166.969 12.18 166.659 11.44 166.039 11C165.439 10.56 164.599 10.34 163.519 10.34C162.459 10.34 161.589 10.67 160.909 11.33C160.229 11.99 159.889 12.9 159.889 14.06ZM180.782 21.14L181.022 21.86C179.522 22.9 177.882 23.42 176.102 23.42C175.462 23.42 174.912 23.19 174.452 22.73C173.992 22.27 173.762 21.66 173.762 20.9V10.28H172.022V9.02H172.682C173.342 9.02 173.952 8.62 174.512 7.82C175.092 7.02 175.382 6.28 175.382 5.6H176.162V9.02H180.242V10.28H177.302C176.542 10.28 176.162 10.64 176.162 11.36V19.94C176.162 21.26 176.642 21.92 177.602 21.92C178.682 21.92 179.742 21.66 180.782 21.14ZM193.859 2L199.019 1.7C201.739 1.7 203.469 2.36 204.209 3.68C204.509 4.22 204.659 4.88 204.659 5.66C204.659 7.98 203.699 9.82 201.779 11.18C203.819 11.56 205.139 12.36 205.739 13.58C206.019 14.18 206.159 14.9 206.159 15.74C206.159 17.76 205.309 19.48 203.609 20.9C201.929 22.3 199.939 23 197.639 23H189.839V22.1H190.859C191.459 22.1 191.839 21.99 191.999 21.77C192.159 21.55 192.239 21.22 192.239 20.78V4.22C192.239 3.74 192.149 3.4 191.969 3.2C191.809 3 191.439 2.9 190.859 2.9H189.839V2H193.859ZM197.099 3.32C196.299 3.32 195.559 3.38 194.879 3.5V11.36H198.539C199.639 11.36 200.569 10.96 201.329 10.16C202.109 9.34 202.499 8.46 202.499 7.52C202.499 6.16 201.959 5.12 200.879 4.4C199.799 3.68 198.539 3.32 197.099 3.32ZM197.639 12.62H194.879V21.14C196.099 21.5 197.239 21.68 198.299 21.68C199.899 21.68 201.199 21.29 202.199 20.51C203.199 19.71 203.699 18.64 203.699 17.3C203.699 15.52 203.059 14.28 201.779 13.58C200.639 12.94 199.259 12.62 197.639 12.62ZM221.522 23H217.202V20.6C216.202 21.68 215.372 22.42 214.712 22.82C214.052 23.22 213.152 23.42 212.012 23.42C210.892 23.42 210.012 23.16 209.372 22.64C208.752 22.1 208.442 21.35 208.442 20.39C208.442 19.43 208.852 18.5 209.672 17.6C210.512 16.68 211.482 15.99 212.582 15.53C213.702 15.05 214.682 14.69 215.522 14.45C216.362 14.19 216.922 14.06 217.202 14.06V13.4C217.202 11.52 216.422 10.58 214.862 10.58C213.782 10.58 212.772 10.81 211.832 11.27C210.912 11.73 210.222 12.32 209.762 13.04L209.162 12.5C210.502 9.9 212.822 8.6 216.122 8.6C216.962 8.6 217.652 8.83 218.192 9.29C218.752 9.73 219.122 10.25 219.302 10.85C219.502 11.45 219.602 12.12 219.602 12.86V20.96C219.602 21.22 219.622 21.42 219.662 21.56C219.702 21.7 219.822 21.84 220.022 21.98C220.242 22.1 220.562 22.16 220.982 22.16H221.522V23ZM217.202 18.92V15.26C215.642 15.56 214.192 16.16 212.852 17.06C211.512 17.96 210.842 18.94 210.842 20C210.842 20.42 211.042 20.79 211.442 21.11C211.862 21.41 212.372 21.56 212.972 21.56C213.592 21.56 214.322 21.29 215.162 20.75C216.002 20.19 216.682 19.58 217.202 18.92ZM239.335 23H235.615L229.135 15.02L227.935 16.04V20.84C227.935 21.16 227.945 21.39 227.965 21.53C228.005 21.67 228.125 21.81 228.325 21.95C228.545 22.09 228.875 22.16 229.315 22.16H229.855V23H223.795V22.16H224.155C224.595 22.16 224.915 22.09 225.115 21.95C225.335 21.81 225.455 21.67 225.475 21.53C225.515 21.39 225.535 21.16 225.535 20.84V3.2C225.535 2.82 225.395 2.55 225.115 2.39C224.855 2.21 224.395 2.12 223.735 2.12V1.28C224.175 1.28 224.805 1.17 225.625 0.95C226.465 0.729999 227.075 0.499999 227.455 0.26L227.935 0.139999V14.3L232.435 10.7C232.755 10.44 232.915 10.26 232.915 10.16C232.915 10 232.675 9.92 232.195 9.92H231.955V9.02H236.995V9.92H236.695C235.935 9.92 235.315 10.12 234.835 10.52L231.115 13.58L236.995 20.84C237.655 21.72 238.215 22.16 238.675 22.16H239.335V23ZM251.575 19.34L252.115 19.88C250.835 22.24 248.535 23.42 245.215 23.42C243.675 23.42 242.355 22.74 241.255 21.38C240.175 20.02 239.635 18.5 239.635 16.82C239.635 14.56 240.365 12.63 241.825 11.03C243.305 9.41 245.095 8.6 247.195 8.6C248.195 8.6 249.075 8.89 249.835 9.47C251.195 10.53 251.875 11.9 251.875 13.58C251.875 13.82 251.825 14.11 251.725 14.45C251.645 14.79 251.575 14.96 251.515 14.96L241.855 15.26C241.855 16.82 242.345 18.26 243.325 19.58C244.305 20.9 245.495 21.56 246.895 21.56C247.895 21.56 248.815 21.36 249.655 20.96C250.515 20.54 251.155 20 251.575 19.34ZM242.155 14.06L249.175 13.76C249.215 13.76 249.235 13.58 249.235 13.22C249.235 12.18 248.925 11.44 248.305 11C247.705 10.56 246.865 10.34 245.785 10.34C244.725 10.34 243.855 10.67 243.175 11.33C242.495 11.99 242.155 12.9 242.155 14.06ZM260.921 23H254.441V22.16H254.921C255.461 22.16 255.801 22.07 255.941 21.89C256.101 21.71 256.181 21.42 256.181 21.02V12.02C256.181 11.64 256.051 11.37 255.791 11.21C255.551 11.03 255.101 10.94 254.441 10.94V10.1C254.841 10.1 255.441 9.96 256.241 9.68C257.061 9.38 257.681 9.1 258.101 8.84L258.641 8.72V12.44C259.361 10.86 260.181 9.82 261.101 9.32C262.021 8.8 263.381 8.54 265.181 8.54L265.001 12.02H264.101C264.101 11.74 263.991 11.47 263.771 11.21C263.571 10.95 263.241 10.82 262.781 10.82C261.781 10.82 260.841 11.36 259.961 12.44C259.081 13.52 258.641 14.56 258.641 15.56V20.84C258.641 21.16 258.651 21.39 258.671 21.53C258.711 21.67 258.831 21.81 259.031 21.95C259.231 22.09 259.541 22.16 259.961 22.16H260.921V23ZM264.684 29.96L265.164 27.62H265.584C265.624 27.84 265.804 28.08 266.124 28.34C266.444 28.62 266.784 28.76 267.144 28.76C268.384 28.76 269.264 28.34 269.784 27.5C270.304 26.66 270.844 25.14 271.404 22.94L266.844 11.12C266.664 10.7 266.474 10.4 266.274 10.22C266.074 10.02 265.764 9.92 265.344 9.92H264.924V9.02H270.804V9.92H270.624C269.784 9.92 269.364 10.16 269.364 10.64C269.364 10.74 269.464 11.06 269.664 11.6L272.724 19.76L276.084 11.3C276.324 10.82 276.444 10.52 276.444 10.4C276.444 10.22 276.324 10.1 276.084 10.04C275.864 9.96 275.404 9.92 274.704 9.92H274.464V9.02H280.044V9.92H279.744C279.064 9.92 278.594 10.02 278.334 10.22C278.074 10.42 277.844 10.8 277.644 11.36L271.584 26.54C271.044 27.86 270.394 28.84 269.634 29.48C268.894 30.12 267.884 30.44 266.604 30.44C266.124 30.44 265.484 30.28 264.684 29.96Z" fill="black"/>
</svg>
