<svg width="57" height="57" viewBox="0 0 57 57" fill="none" xmlns="http://www.w3.org/2000/svg">
<g clip-path="url(#clip0_5_262)">
<path d="M14.605 34.5C14.605 23.178 23.783 14 35.105 14C35.349 14 35.585 14.028 35.826 14.036C33.735 6.512 27.028 1 19.06 1C9.41998 1 1.60498 9.059 1.60498 19C1.60498 27.386 7.17398 34.412 14.701 36.411C14.643 35.781 14.605 35.145 14.605 34.5Z" fill="#6A3311"/>
<path d="M15.83 37.745L14.445 37.378C6.29598 35.214 0.60498 27.656 0.60498 19C0.60498 8.523 8.88398 0 19.06 0C27.246 0 34.537 5.662 36.79 13.769L37.155 15.081L35.795 15.036C35.682 15.033 35.569 15.025 35.457 15.017C35.339 15.009 35.223 15 35.105 15C24.353 15 15.605 23.748 15.605 34.5C15.605 35.056 15.635 35.65 15.697 36.318L15.83 37.745ZM19.06 2C9.98598 2 2.60498 9.626 2.60498 19C2.60498 26.263 7.06598 32.658 13.613 35.023C13.608 34.845 13.605 34.671 13.605 34.5C13.605 22.865 22.896 13.358 34.447 13.01C32.058 6.464 25.908 2 19.06 2Z" fill="#6A3311"/>
<path d="M14.605 34.5C14.605 23.178 23.783 14 35.105 14C35.349 14 35.585 14.028 35.826 14.036C33.735 6.512 27.028 1 19.06 1C9.41998 1 1.60498 9.059 1.60498 19C1.60498 27.386 7.17398 34.412 14.701 36.411C14.643 35.781 14.605 35.145 14.605 34.5Z" fill="#6A3311"/>
<path d="M15.83 37.745L14.445 37.378C6.29598 35.214 0.60498 27.656 0.60498 19C0.60498 8.523 8.88398 0 19.06 0C27.246 0 34.537 5.662 36.79 13.769L37.155 15.081L35.795 15.036C35.682 15.033 35.569 15.025 35.457 15.017C35.339 15.009 35.223 15 35.105 15C24.353 15 15.605 23.748 15.605 34.5C15.605 35.056 15.635 35.65 15.697 36.318L15.83 37.745ZM19.06 2C9.98598 2 2.60498 9.626 2.60498 19C2.60498 26.263 7.06598 32.658 13.613 35.023C13.608 34.845 13.605 34.671 13.605 34.5C13.605 22.865 22.896 13.358 34.447 13.01C32.058 6.464 25.908 2 19.06 2Z" fill="#6A3311"/>
<path d="M16.099 26.839C16.715 25.312 17.514 23.881 18.462 22.562C18.05 21.088 16.711 20 15.105 20C13.172 20 11.605 21.567 11.605 23.5C11.605 25.433 13.172 27 15.105 27C15.453 27 15.782 26.934 16.099 26.839Z" fill="#8C572C"/>
<path d="M2.60498 16C2.60498 16 4.35498 17.563 7.60498 18L2.60498 16Z" fill="#A46F3E"/>
<path d="M7.606 19.0001C7.562 19.0001 7.516 18.9971 7.471 18.9911C3.957 18.5181 2.019 16.8181 1.938 16.7461C1.526 16.3781 1.49 15.7461 1.858 15.3341C2.224 14.9221 2.853 14.8871 3.267 15.2511C3.309 15.2871 4.892 16.6261 7.738 17.0091C8.285 17.0831 8.67 17.5861 8.596 18.1341C8.528 18.6361 8.099 19.0001 7.606 19.0001Z" fill="#A46F3E"/>
<path d="M7.60498 14C7.60498 15.658 6.26298 17 4.60498 17L7.60498 14Z" fill="#A46F3E"/>
<path d="M4.60498 18C4.05298 18 3.60498 17.553 3.60498 17C3.60498 16.447 4.05298 16 4.60498 16C5.70798 16 6.60498 15.103 6.60498 14C6.60498 13.447 7.05298 13 7.60498 13C8.15698 13 8.60498 13.447 8.60498 14C8.60498 16.206 6.81098 18 4.60498 18Z" fill="#A46F3E"/>
<path d="M16.105 13C18.038 13 19.605 11.433 19.605 9.5C19.605 7.567 18.038 6 16.105 6C14.172 6 12.605 7.567 12.605 9.5C12.605 11.433 14.172 13 16.105 13Z" fill="#4C312C"/>
<path d="M28.605 4C28.605 4 28.917 8.5 25.605 10C25.605 10 23.542 10.438 23.605 12" fill="#A46F3E"/>
<path d="M23.604 13C23.07 13 22.627 12.578 22.605 12.04C22.532 10.211 24.195 9.316 25.276 9.05C27.815 7.818 27.609 4.105 27.607 4.067C27.572 3.517 27.988 3.041 28.538 3.004C29.087 2.966 29.564 3.381 29.602 3.931C29.617 4.143 29.918 9.145 26.017 10.911L25.812 10.978C25.805 10.979 24.577 11.286 24.604 11.959C24.626 12.511 24.197 12.977 23.645 12.998C23.631 13 23.618 13 23.604 13ZM25.605 10H25.615H25.605Z" fill="#A46F3E"/>
<path d="M27.605 7.99998C27.605 7.99998 23.98 6.74998 23.605 6.99998L27.605 7.99998Z" fill="#A46F3E"/>
<path d="M27.605 9.00003C27.497 9.00003 27.387 8.98203 27.279 8.94503C25.975 8.49603 24.341 8.01503 23.848 7.97003C23.45 8.07003 23.015 7.91503 22.773 7.55403C22.467 7.09403 22.591 6.47403 23.05 6.16703C23.419 5.92103 23.837 5.64203 27.931 7.05403C28.453 7.23403 28.73 7.80303 28.55 8.32503C28.408 8.74003 28.02 9.00003 27.605 9.00003ZM24.16 7.83203L24.159 7.83303C24.159 7.83303 24.159 7.83203 24.16 7.83203Z" fill="#A46F3E"/>
<path d="M52.489 42.267C50.184 41.338 49.068 38.7171 49.996 36.4121C50.44 35.3101 51.277 34.4901 52.275 34.0251C50.569 32.9991 49.803 30.8681 50.571 28.9621C50.741 28.5391 50.987 28.1741 51.267 27.8451C50.824 27.7821 50.382 27.6721 49.948 27.4981C47.066 26.3371 45.671 23.0601 46.832 20.1791C47.092 19.5341 47.462 18.9691 47.905 18.4851C46.829 17.6261 45.651 16.8621 44.374 16.2151C34.276 11.0961 21.939 15.1321 16.82 25.2311C11.701 35.3301 15.737 47.6661 25.836 52.7851C35.935 57.9041 48.271 53.8681 53.39 43.7691C53.591 43.3731 53.752 42.9691 53.925 42.5671C53.444 42.5411 52.96 42.4571 52.489 42.267Z" fill="#A46F3E"/>
<path d="M35.083 56.011C31.751 56.011 28.442 55.228 25.384 53.677C20.261 51.08 16.457 46.645 14.671 41.187C12.885 35.729 13.332 29.902 15.928 24.78C18.524 19.658 22.961 15.853 28.419 14.067C33.877 12.281 39.704 12.726 44.826 15.324C46.136 15.987 47.381 16.788 48.529 17.703L49.365 18.371L48.642 19.16C48.26 19.577 47.963 20.046 47.759 20.554C46.807 22.919 47.956 25.618 50.322 26.572C50.658 26.708 51.012 26.801 51.406 26.856L53.203 27.11L52.029 28.494C51.785 28.781 51.611 29.057 51.499 29.337C50.925 30.763 51.469 32.374 52.791 33.17L54.403 34.14L52.697 34.933C51.883 35.312 51.253 35.971 50.924 36.787C50.574 37.654 50.584 38.605 50.95 39.466C51.316 40.325 51.995 40.991 52.863 41.341C53.188 41.473 53.553 41.548 53.979 41.571L55.406 41.649L54.739 43.21C54.595 43.549 54.452 43.889 54.283 44.222C51.685 49.345 47.25 53.15 41.792 54.936C39.592 55.653 37.332 56.011 35.083 56.011ZM35.125 14.99C33.084 14.99 31.036 15.313 29.041 15.967C24.091 17.587 20.067 21.038 17.712 25.684C15.357 30.33 14.952 35.615 16.571 40.565C18.19 45.515 21.641 49.539 26.287 51.894C30.933 54.248 36.217 54.654 41.168 53.034C46.114 51.415 50.135 47.97 52.49 43.329C52.362 43.289 52.236 43.245 52.113 43.195C50.75 42.645 49.683 41.599 49.107 40.248C48.532 38.896 48.517 37.401 49.066 36.038C49.399 35.215 49.922 34.494 50.59 33.926C49.3 32.506 48.891 30.451 49.641 28.589C49.657 28.55 49.673 28.512 49.69 28.473C49.651 28.458 49.611 28.443 49.572 28.427C46.184 27.062 44.538 23.195 45.902 19.807C46.062 19.411 46.259 19.032 46.495 18.673C45.678 18.086 44.815 17.562 43.92 17.108C41.148 15.701 38.146 14.99 35.125 14.99Z" fill="#A46F3E"/>
<path d="M33.81 29.496C35.743 29.496 37.31 27.929 37.31 25.996C37.31 24.063 35.743 22.496 33.81 22.496C31.877 22.496 30.31 24.063 30.31 25.996C30.31 27.929 31.877 29.496 33.81 29.496Z" fill="#6A3311"/>
<path d="M27.48 41.983C29.413 41.983 30.98 40.416 30.98 38.483C30.98 36.55 29.413 34.983 27.48 34.983C25.547 34.983 23.98 36.55 23.98 38.483C23.98 40.416 25.547 41.983 27.48 41.983Z" fill="#4C312C"/>
<path d="M40.432 45.1851C42.365 45.1851 43.932 43.6181 43.932 41.6851C43.932 39.7521 42.365 38.1851 40.432 38.1851C38.499 38.1851 36.932 39.7521 36.932 41.6851C36.932 43.6181 38.499 45.1851 40.432 45.1851Z" fill="#8C572C"/>
<path d="M40.137 55.429C39.985 55.429 39.831 55.395 39.686 55.321C39.193 55.072 38.997 54.469 39.246 53.977C39.673 53.135 38.624 51.42 36.582 50.384C36.089 50.134 35.893 49.532 36.142 49.04C36.391 48.548 36.993 48.349 37.486 48.601C40.487 50.122 42.043 52.881 41.029 54.881C40.854 55.229 40.502 55.429 40.137 55.429Z" fill="#8C572C"/>
<path d="M40.774 20.997C40.622 20.997 40.468 20.963 40.323 20.889C37.865 19.643 36.878 16.627 38.124 14.168C38.374 13.676 38.975 13.476 39.468 13.729C39.961 13.978 40.157 14.58 39.908 15.073C39.16 16.549 39.752 18.358 41.227 19.106C41.72 19.355 41.916 19.958 41.667 20.45C41.491 20.797 41.139 20.997 40.774 20.997Z" fill="#4C312C"/>
<path d="M22.385 30.734C22.233 30.734 22.079 30.7 21.934 30.626C20.938 30.121 20.244 29.254 19.931 28.265C19.655 28.418 19.361 28.546 19.055 28.647C17.785 29.061 16.431 28.958 15.239 28.353C14.746 28.103 14.55 27.501 14.799 27.009C15.049 26.517 15.65 26.317 16.143 26.57C16.859 26.933 17.671 26.996 18.433 26.746C19.194 26.497 19.813 25.967 20.175 25.251C20.425 24.759 21.026 24.559 21.519 24.812C22.012 25.061 22.208 25.664 21.959 26.156C21.46 27.139 21.855 28.345 22.839 28.844C23.332 29.093 23.528 29.696 23.279 30.188C23.102 30.534 22.75 30.734 22.385 30.734Z" fill="#8C572C"/>
<path d="M23.138 50.932C22.423 50.932 21.659 50.738 20.868 50.265C20.394 49.981 20.24 49.367 20.524 48.893C20.807 48.42 21.421 48.266 21.896 48.548C24.101 49.87 25.845 47.219 25.918 47.106C27.564 44.016 31.21 44.42 31.365 44.444C31.913 44.511 32.303 45.01 32.236 45.558C32.169 46.105 31.659 46.497 31.126 46.429C31.012 46.413 28.673 46.183 27.641 48.117C26.881 49.303 25.211 50.932 23.138 50.932Z" fill="#8C572C"/>
</g>
<defs>
<clipPath id="clip0_5_262">
<rect width="56.011" height="56.011" fill="white"/>
</clipPath>
</defs>
</svg>
