<svg width="60" height="60" viewBox="0 0 60 60" fill="none" xmlns="http://www.w3.org/2000/svg">
<g clip-path="url(#clip0_1_124)">
<path d="M1.22813 27.4729C5.39849 27.4729 6.54036 31.2006 10.8161 31.2025C15.0919 31.2006 16.2339 27.4729 20.4041 27.4729C24.5756 27.4729 25.5739 31.2026 29.995 31.2026C34.4162 31.2026 35.0936 27.4729 39.586 27.4729H39.5969H39.5956C43.766 27.4729 44.9079 31.2006 49.1836 31.2025C53.4594 31.2006 54.6014 27.4729 58.7716 27.4729L47.5629 55.5687C46.7861 57.5156 45.0213 58.7754 43.0705 58.7754H16.9293C14.9785 58.7754 13.2137 57.5156 12.4369 55.5687L1.22813 27.4729Z" fill="#BF4F28"/>
<path d="M10.8161 31.2025C6.54036 31.2006 5.39849 27.4729 1.22813 27.4729L12.437 55.5687C13.2137 57.5156 14.9785 58.7754 16.9294 58.7754H21.1581L16.0942 29.03C14.5976 30.0524 13.1897 31.2016 10.8161 31.2025Z" fill="#871B00"/>
<path d="M39.5161 27.4729H39.5063C35.0225 27.4729 34.2693 31.0557 29.9997 31.1958V58.7755H38.6564L44.0066 29.0996C42.7545 28.253 41.4577 27.4729 39.5161 27.4729Z" fill="#871B00"/>
<path d="M20.404 27.4729C24.5754 27.4729 25.5738 31.2026 29.995 31.2026C34.416 31.2026 35.0935 27.4729 39.586 27.4729H39.5956C43.7659 27.4729 44.9079 31.2006 49.1836 31.2025C53.4594 31.2006 54.6014 27.4729 58.7716 27.4729C58.7716 21.8467 52.736 16.9498 43.8311 14.4198L16.7787 14.2514C7.54056 16.7283 1.22813 21.7193 1.22813 27.4729C5.39849 27.4729 6.54036 31.2006 10.8161 31.2025C15.0919 31.2006 16.2338 27.4729 20.404 27.4729Z" fill="#FFA1D5"/>
<path d="M23.9463 19.04C23.9463 21.3112 22.1051 23.1522 19.834 23.1522C17.5629 23.1522 15.7218 21.3111 15.7218 19.04C15.7218 14.1042 22.8726 2.18379 44.2334 1.22426C41.0716 5.34798 44.2334 14.3378 44.2334 19.04C44.2334 21.3112 42.3923 23.1522 40.1212 23.1522C37.8501 23.1522 36.009 21.3111 36.009 19.04" fill="white"/>
<path d="M36.0089 19.04C36.0089 22.3709 33.3085 25.0713 29.9776 25.0713C26.6466 25.0713 23.9463 22.3709 23.9463 19.04C23.9463 11.5049 33.9755 4.92541 43.1597 1.9097C34.524 6.70736 36.0089 14.5334 36.0089 19.04Z" fill="#EFEEEE"/>
<path d="M55.4367 18.855C52.8055 16.6034 49.1371 14.7352 44.8006 13.4297C44.145 9.3776 43.3564 4.38048 45.2051 1.96946C45.4948 1.59165 45.5393 1.08024 45.3191 0.658132C45.0989 0.236022 44.6561 -0.0200335 44.1786 0.00117751C32.1571 0.541179 25.0383 4.4863 21.1832 7.70076C19.0632 9.46854 17.5321 11.3192 16.4737 13.0663C16.4698 13.0674 16.4655 13.068 16.4615 13.0689C6.32832 15.7855 0.0271407 21.2897 0.00428905 27.4395C0.00417186 27.446 0.0314766 27.7777 0.091008 27.9268L11.2998 56.0225C12.2637 58.4388 14.4737 60 16.9295 60H43.0701C45.5261 60 47.7359 58.4388 48.6999 56.0227C48.6999 56.0227 59.9083 27.9268 59.9081 27.9267C59.9642 27.7864 59.9959 27.6336 59.9959 27.4731C59.9959 24.3875 58.4193 21.4074 55.4367 18.855ZM41.7653 4.27876C41.3158 7.22135 41.8813 10.7203 42.4009 13.9316C42.7137 15.8637 43.009 17.6888 43.009 19.0401C43.009 20.6324 41.7136 21.9278 40.1213 21.9278C38.5289 21.9278 37.2334 20.6323 37.2334 19.0401C37.2334 18.4773 37.2116 17.8771 37.1887 17.2417C37.0383 13.1017 36.8557 8.05772 41.7653 4.27876ZM34.7411 17.3304C34.7633 17.943 34.7844 18.5216 34.7844 19.04C34.7844 21.6905 32.6281 23.8469 29.9775 23.8469C27.327 23.8469 25.1708 21.6905 25.1708 19.04C25.1708 15.1722 28.2755 11.843 30.8801 9.73128C32.6201 8.32057 34.7282 6.97818 37.0307 5.79517C36.3744 6.80346 35.86 7.90022 35.4824 9.0912C34.549 12.0365 34.6555 14.9719 34.7411 17.3304ZM36.2473 3.43818C33.6731 4.73252 31.3195 6.22232 29.338 7.82897C25.0098 11.3384 22.7221 15.215 22.7221 19.0401C22.7221 20.6324 21.4266 21.9278 19.8342 21.9278C18.2419 21.9278 16.9465 20.6323 16.9465 19.0401C16.9464 15.5204 21.7165 6.51658 36.2473 3.43818ZM46.4254 55.115C45.8351 56.5949 44.5181 57.551 43.0703 57.551H40.2074L43.2985 39.8046C43.4146 39.1384 42.9686 38.5041 42.3023 38.3882C41.6358 38.2722 41.002 38.7181 40.8859 39.3845L37.7216 57.551H31.2414V35.1987C31.2414 34.5225 30.6931 33.9743 30.0169 33.9743C29.3407 33.9743 28.7924 34.5225 28.7924 35.1987V57.551H22.2492L19.085 39.3843C18.9689 38.7182 18.3348 38.2716 17.6687 38.3881C17.0025 38.5043 16.5564 39.1382 16.6725 39.8045L19.7634 57.551H16.9297C15.482 57.551 14.1649 56.5948 13.5746 55.115L3.19168 29.09C3.91637 29.3928 4.5616 29.8406 5.25934 30.3255C6.67579 31.31 8.28138 32.4258 10.8166 32.427C13.3509 32.426 14.9566 31.31 16.3731 30.3255C17.63 29.452 18.7155 28.6975 20.4042 28.6975C22.0714 28.6975 23.124 29.4393 24.3429 30.2982C25.759 31.2962 27.3642 32.4273 29.995 32.4273C32.5944 32.4273 34.121 31.3182 35.468 30.3398C36.6809 29.4588 37.7283 28.6978 39.5962 28.6976C41.2845 28.6978 42.3698 29.4522 43.6266 30.3257C45.043 31.3102 46.6486 32.4261 49.184 32.4273C51.7183 32.4262 53.324 31.3102 54.7403 30.3257C55.4381 29.8407 56.0833 29.393 56.808 29.0902L46.4254 55.115ZM53.3426 28.3146C52.059 29.2067 50.9504 29.9773 49.1839 29.978C47.4165 29.9773 46.3079 29.2067 45.0243 28.3147C43.6308 27.3462 42.0516 26.2485 39.5953 26.2485C39.5924 26.2485 39.5891 26.2485 39.586 26.2485C36.933 26.2485 35.3899 27.3694 34.0286 28.3584C32.8321 29.2276 31.7987 29.9783 29.995 29.9783C28.1404 29.9783 27.0341 29.1989 25.7535 28.2963C24.3914 27.3364 22.8477 26.2485 20.4041 26.2485C17.9478 26.2485 16.3686 27.3461 14.9753 28.3147C13.6916 29.2068 12.5829 29.9774 10.8164 29.9782C9.04907 29.9774 7.94059 29.2069 6.65692 28.3148C5.53051 27.532 4.28223 26.6653 2.54785 26.3616C2.89449 24.3388 4.1818 22.3578 6.32258 20.5744C8.52091 18.7432 11.5158 17.1941 15.0614 16.0393C14.6706 17.1791 14.497 18.2041 14.497 19.0402C14.497 21.9829 16.891 24.3769 19.8337 24.3769C21.3618 24.3769 22.7409 23.7304 23.7148 22.6976C24.9754 24.8479 27.3097 26.2959 29.9773 26.2959C32.6448 26.2959 34.9793 24.8478 36.2399 22.6976C37.2137 23.7304 38.5928 24.3769 40.1209 24.3769C43.0635 24.3769 45.4577 21.9829 45.4577 19.0402C45.4577 18.1718 45.3599 17.1866 45.216 16.1304C48.734 17.307 51.6937 18.8759 53.8441 20.7159C55.8834 22.461 57.1132 24.3931 57.451 26.3616C55.7173 26.6651 54.4689 27.5317 53.3426 28.3146Z" fill="black"/>
<path d="M17.2664 36.9C16.6783 36.9 16.1594 36.475 16.0599 35.876L16.0573 35.8602C15.9466 35.1929 16.3976 34.5623 17.0648 34.4517C17.7317 34.3407 18.3626 34.792 18.4732 35.459L18.4758 35.4748C18.5866 36.142 18.1355 36.7727 17.4684 36.8833C17.4006 36.8945 17.333 36.9 17.2664 36.9Z" fill="black"/>
<path d="M42.7677 36.5323C42.7039 36.5323 42.6393 36.5273 42.5744 36.517C41.9065 36.411 41.4508 35.7837 41.5566 35.1159L41.5592 35.1001C41.665 34.4321 42.2932 33.9767 42.9603 34.0823C43.6283 34.1882 44.0839 34.8155 43.9781 35.4834L43.9755 35.4992C43.88 36.1024 43.3593 36.5323 42.7677 36.5323Z" fill="black"/>
</g>
<defs>
<clipPath id="clip0_1_124">
<rect width="60" height="60" fill="white"/>
</clipPath>
</defs>
</svg>
