<svg width="66" height="66" viewBox="0 0 66 66" fill="none" xmlns="http://www.w3.org/2000/svg">
<g clip-path="url(#clip0_5_309)">
<path d="M7.94068 34.8403H10.3145L11.0169 33.5493H7.84644L7.94068 34.8403Z" fill="#BADFE8"/>
<path d="M21.4818 11.2227C20.9415 11.5974 20.3295 11.8105 19.6809 11.8105C19.0323 11.8105 18.4204 11.5975 17.8801 11.2227V11.9993L19.6809 15.5239L21.4818 11.9993V11.2227Z" fill="#C69C6D"/>
<path d="M21.1743 14.2505L23.1074 15.1312L23.2018 12.9501L22.0427 12.5507L21.1743 14.2505Z" fill="#BADFE8"/>
<path d="M20.0564 16.4382V35.2431H24.928V20.9896C24.928 20.9232 24.9464 20.8735 24.9489 20.8663L27.1169 14.6425C26.6403 14.2162 25.9806 13.8286 25.0645 13.591C25.0552 13.5886 25.0457 13.5857 25.0364 13.5826L23.942 13.2053L23.8329 15.7196C23.8275 15.8441 23.7605 15.9579 23.6541 16.0231C23.5942 16.0599 23.5263 16.0785 23.458 16.0785C23.405 16.0785 23.352 16.0673 23.3025 16.0448L20.8324 14.9194L20.0564 16.4382Z" fill="#BADFE8"/>
<path d="M28.0219 32.799H31.4634L28.3433 16.8917C28.3408 16.8788 28.339 16.8657 28.3378 16.8525C28.3325 16.7982 28.2501 16.0627 27.6896 15.2797L25.6912 21.0169L28.0219 32.799Z" fill="#BADFE8"/>
<path d="M29.0475 34.8403H31.196C31.2745 34.7729 31.3542 34.7104 31.4349 34.6526L31.5155 33.5494H28.3448L29.0475 34.8403Z" fill="#BADFE8"/>
<path d="M18.1876 14.2506L17.3192 12.5507L16.16 12.9501L16.2544 15.1312L18.1876 14.2506Z" fill="#BADFE8"/>
<path d="M7.80744 36.4512C7.77248 36.7207 7.84466 36.9886 8.01079 37.2047C8.17706 37.4207 8.41732 37.5589 8.68759 37.594C8.95771 37.6289 9.22574 37.5569 9.44168 37.3906C9.65763 37.2244 9.79599 36.984 9.83111 36.7137C9.83261 36.7033 9.83426 36.693 9.83651 36.6828L10.0724 35.5906H7.9209L7.80744 36.4512Z" fill="#C69C6D"/>
<path d="M19.681 11.06C21.4413 11.06 22.8735 9.01814 22.8735 6.50825V5.42626C22.1501 5.30396 21.6559 4.81549 21.4404 4.02283C21.0108 4.30796 20.3926 4.48219 19.6809 4.48219C18.9692 4.48219 18.3511 4.30796 17.9213 4.02283C17.7058 4.81534 17.2115 5.30321 16.4882 5.42566V6.50825C16.4883 9.01814 17.9206 11.06 19.681 11.06ZM21.0315 6.63296C21.1712 6.49339 21.4218 6.49339 21.5612 6.63296C21.6317 6.70199 21.6723 6.79953 21.6723 6.89708C21.6723 6.99612 21.6317 7.09217 21.5612 7.1627C21.4922 7.23323 21.3946 7.27225 21.2971 7.27225C21.198 7.27225 21.1003 7.23323 21.0315 7.1627C20.9609 7.09367 20.9219 6.99612 20.9219 6.89708C20.9219 6.79803 20.9609 6.70199 21.0315 6.63296ZM18.7089 8.71785C18.8852 8.71785 19.0332 8.83956 19.0734 9.00343C19.1463 9.04845 19.3543 9.12634 19.681 9.12634C20.0077 9.12634 20.2155 9.0483 20.2886 9.00343C20.3288 8.83941 20.4768 8.71785 20.6531 8.71785C20.8604 8.71785 21.0283 8.88578 21.0283 9.09302C21.0283 9.55448 20.4744 9.87682 19.681 9.87682C18.8877 9.87682 18.3337 9.55463 18.3337 9.09302C18.3337 8.88578 18.5016 8.71785 18.7089 8.71785ZM17.691 6.89708C17.691 6.79803 17.73 6.70199 17.8005 6.63296C17.9386 6.49339 18.192 6.49204 18.3301 6.63296C18.4008 6.70199 18.4411 6.79953 18.4411 6.89708C18.4411 6.99612 18.4006 7.09367 18.3301 7.1627C18.2611 7.23323 18.1637 7.27225 18.0645 7.27225C17.9669 7.27225 17.8694 7.23323 17.8004 7.1627C17.73 7.09382 17.691 6.99612 17.691 6.89708Z" fill="#C69C6D"/>
<path d="M17.2941 3.01069C17.2941 2.80344 17.462 2.63552 17.6693 2.63552H17.6696C17.8768 2.63552 18.0448 2.80344 18.0448 3.01069C18.0448 3.30482 18.6821 3.73206 19.681 3.73206C20.6798 3.73206 21.3171 3.30482 21.3171 3.01069C21.3171 2.80344 21.4851 2.63552 21.6923 2.63552H21.6926C21.8999 2.63552 22.0678 2.80344 22.0678 3.01069C22.0678 3.93931 22.3393 4.48886 22.8735 4.65333V2.73696C22.8742 2.7005 22.881 2.10623 22.3661 1.58009C21.8275 1.02949 20.924 0.750366 19.681 0.750366C18.4379 0.750366 17.5344 1.02949 16.9956 1.57994C16.4808 2.10608 16.4875 2.70035 16.4881 2.72541V4.65318C17.0226 4.48871 17.2941 3.93931 17.2941 3.01069Z" fill="#754C24"/>
<path d="M30.4404 38.297H31.3711L32.1914 36.9905C32.3015 36.8151 32.5332 36.7623 32.7085 36.8723C32.758 36.9033 32.7966 36.9448 32.8257 36.9911L32.8267 36.9905L33.647 38.297H37.048C36.8172 35.9407 35.6873 34.7021 33.7441 34.7021C31.8012 34.7021 30.6712 35.9407 30.4404 38.297Z" fill="#B79870"/>
<path d="M44.5347 8.21612V8.95326C44.5347 11.0449 45.7264 12.7467 47.1914 12.7467C48.6563 12.7467 49.848 11.0449 49.848 8.95326V8.21612C49.2325 8.0521 47.8568 7.58389 47.1914 6.55127C46.526 7.58374 45.1503 8.05195 44.5347 8.21612ZM45.605 9.48435C45.506 9.48435 45.4099 9.44383 45.3394 9.3748C45.2704 9.30426 45.2298 9.20822 45.2298 9.10918C45.2298 9.01013 45.2705 8.91259 45.3394 8.84356C45.479 8.70399 45.7309 8.70399 45.8706 8.84356C45.9397 8.91259 45.98 9.01013 45.98 9.10918C45.98 9.20822 45.9395 9.30426 45.8706 9.3748C45.8001 9.44383 45.7041 9.48435 45.605 9.48435ZM48.4743 8.84356C48.6139 8.70399 48.866 8.70399 49.0055 8.84356C49.0746 8.91409 49.1151 9.01013 49.1151 9.10918C49.1151 9.20822 49.0744 9.30426 49.0055 9.3748C48.935 9.44383 48.839 9.48435 48.7399 9.48435C48.6409 9.48435 48.5447 9.44383 48.4742 9.3748C48.4051 9.30426 48.3648 9.20822 48.3648 9.10918C48.3649 9.01013 48.4053 8.91259 48.4743 8.84356ZM47.8184 10.8294C47.8563 10.6625 48.0056 10.5378 48.1842 10.5378C48.3915 10.5378 48.5594 10.7057 48.5594 10.913C48.5594 11.3842 47.9891 11.7133 47.1728 11.7133C46.3562 11.7133 45.7861 11.3842 45.7861 10.913C45.7861 10.7057 45.9541 10.5378 46.1613 10.5378C46.3397 10.5378 46.4892 10.6625 46.5272 10.8294C46.6012 10.8774 46.8213 10.963 47.1729 10.963C47.5242 10.963 47.7444 10.8773 47.8184 10.8294Z" fill="#E5CBBD"/>
<path d="M37.4595 36.6323C37.6882 36.5143 37.8609 36.3005 37.9196 36.0404C37.9217 36.0314 37.924 36.0226 37.9267 36.0139L41.8438 23.1496C41.729 22.9671 41.6284 22.7624 41.549 22.5327C41.5486 22.5313 41.5481 22.53 41.5478 22.5288L39.3333 21.5227L36.3682 34.9079C36.8025 35.3033 37.1904 35.8578 37.4595 36.6323Z" fill="#E5CBBD"/>
<path d="M50.2933 7.55068C50.4733 7.58505 50.5981 7.74247 50.598 7.91925H50.5984V8.95307C50.5984 10.5178 50.0022 11.9003 49.097 12.7178V14.6061L51.5471 15.1941C51.9541 15.2898 52.3174 15.4297 52.644 15.5985C54.9486 13.2866 51.7904 7.15946 51.7574 7.09628C51.7295 7.04271 51.7148 6.98298 51.7148 6.9225C51.7148 5.76878 51.3672 4.84991 50.6817 4.19172C49.6905 3.23999 48.2351 3.04505 47.5666 3.00708V5.2719C47.5666 7.01209 50.266 7.54558 50.2933 7.55068Z" fill="#E0BC4B"/>
<path d="M42.8374 15.1937L45.286 14.606V12.718C44.3806 11.9004 43.7844 10.5179 43.7844 8.95311V7.91929H43.7848C43.7847 7.74266 43.9092 7.58524 44.089 7.55072C44.1163 7.54547 46.8162 7.00568 46.8162 5.27179V3.00757C46.1458 3.04659 44.6857 3.24408 43.6981 4.19476C43.0147 4.85265 42.6683 5.77047 42.6683 6.92254C42.6683 6.98302 42.6536 7.04274 42.6257 7.09632C42.5927 7.1595 39.4341 13.2871 41.7392 15.5989C42.0661 15.4297 42.4299 15.2894 42.8374 15.1937Z" fill="#E0BC4B"/>
<path d="M37.0932 39.2519C37.0932 39.1828 37.0918 39.1151 37.0906 39.0474H33.4395C33.3104 39.0474 33.1904 38.9811 33.1218 38.8717L32.5091 37.8956L31.8963 38.8717C31.8278 38.9809 31.7077 39.0474 31.5786 39.0474H30.3978C30.3966 39.1151 30.3952 39.1828 30.3952 39.2519C30.3952 41.6172 31.8975 43.5413 33.7441 43.5413C35.5909 43.5415 37.0932 41.6172 37.0932 39.2519ZM31.9325 40.2499C31.8635 40.1809 31.8229 40.0833 31.8229 39.9843C31.8229 39.8852 31.862 39.7892 31.9325 39.7187C32.0721 39.5791 32.324 39.5791 32.4637 39.7187C32.5328 39.7892 32.5731 39.8852 32.5731 39.9843C32.5731 40.0833 32.5326 40.1794 32.4637 40.2499C32.3931 40.3189 32.2972 40.3594 32.198 40.3594C32.0989 40.3593 32.0015 40.3188 31.9325 40.2499ZM34.539 42.5213C34.3213 42.6063 34.0395 42.6534 33.7458 42.654C33.7437 42.654 33.7416 42.654 33.7395 42.654C33.4482 42.654 33.1688 42.6082 32.9522 42.5248C32.5062 42.3529 32.439 42.0728 32.4387 41.921C32.4382 41.714 32.6057 41.5454 32.8129 41.5451C32.8132 41.5451 32.8135 41.5451 32.8138 41.5451C32.98 41.5451 33.1207 41.6529 33.1701 41.8025C33.2492 41.8439 33.4495 41.9011 33.7441 41.9038C34.0404 41.9032 34.2387 41.8418 34.318 41.7999C34.3667 41.65 34.5077 41.5415 34.6738 41.5412C34.6741 41.5412 34.6744 41.5412 34.6747 41.5412C34.8815 41.5412 35.0494 41.7087 35.0499 41.9156C35.0502 42.0672 34.9841 42.3477 34.539 42.5213ZM35.5565 40.2422C35.486 40.3128 35.3884 40.3533 35.2909 40.3533C35.1918 40.3533 35.0941 40.3128 35.0252 40.2422C34.9547 40.1732 34.9157 40.0757 34.9157 39.9781C34.9157 39.8791 34.9547 39.7815 35.0252 39.7125C35.165 39.5729 35.4156 39.5714 35.5565 39.7125C35.6255 39.7815 35.666 39.8791 35.666 39.9781C35.666 40.0757 35.6255 40.1732 35.5565 40.2422Z" fill="#D8B4A4"/>
<path d="M29.2894 35.5907C29.2894 35.5907 29.5281 36.7036 29.5307 36.7137C29.5903 36.9455 29.6726 37.1562 29.8364 37.3142C29.9942 36.5998 30.2406 36.0367 30.5376 35.5907H29.2894Z" fill="#C69C6D"/>
<path d="M32.4122 44.0172V44.4946C32.4772 44.6562 33.0349 45.1201 33.7417 45.1201C33.7424 45.1201 33.7435 45.1202 33.7442 45.1201C33.7454 45.1202 33.746 45.1201 33.7468 45.1201C34.4538 45.1201 35.0114 44.6561 35.0762 44.4946V44.0172C34.6583 44.1943 34.2105 44.2917 33.7442 44.2917C33.2778 44.2918 32.8302 44.1943 32.4122 44.0172Z" fill="#D8B4A4"/>
<path d="M37.3445 45.2609C37.3366 45.2599 35.6743 44.9401 35.6743 44.9401C35.3542 45.4186 34.5692 45.8703 33.7465 45.8703H33.7418C32.9189 45.8703 32.1334 45.4182 31.8136 44.9401C31.8136 44.9401 30.1518 45.2596 30.1438 45.2608C28.6347 45.5102 28.1262 46.3075 28.1112 46.343C28.1051 46.3572 26.723 48.7677 26.723 48.7677L29.0567 49.6869L29.681 48.512C29.7617 48.36 29.936 48.2822 30.103 48.3239C30.2702 48.3655 30.3875 48.5157 30.3875 48.688V54.4365H37.1007V48.688C37.1007 48.5157 37.2179 48.3657 37.3852 48.3239C37.5525 48.2822 37.7263 48.3598 37.8072 48.512L38.4315 49.6869L40.7652 48.7677C40.7652 48.7677 39.3818 46.3557 39.3748 46.3373C39.355 46.3007 38.9438 45.4787 37.3445 45.2609Z" fill="#F4A04D"/>
<path d="M34.8558 60.3199V63.5842H36.299L36.5549 60.3199H34.8558Z" fill="#D8B4A4"/>
<path d="M11.024 16.854C11.0228 16.8662 11.0209 16.8797 11.0186 16.8917L7.89856 32.799H11.3401L13.6709 21.0169L11.6725 15.2798C11.1117 16.0631 11.0296 16.7988 11.024 16.854Z" fill="#BADFE8"/>
<path d="M43.987 65.2497H46.7976V63.0515H45.1598C45.0484 63.534 44.7498 64.4531 43.987 65.2497Z" fill="#998675"/>
<path d="M39.1338 50.2169L40.9185 54.2822C40.9235 54.2938 40.9282 54.3055 40.9319 54.3173C40.9441 54.3548 40.9913 54.3904 41.0584 54.4125C41.1672 54.4483 41.3068 54.444 41.4418 54.4002C41.7045 54.3149 41.8349 54.1233 41.806 54.034L40.2392 49.7814L39.1338 50.2169Z" fill="#D8B4A4"/>
<path d="M30.3877 59.5696H33.0753L33.371 56.5949C33.3916 56.3888 33.5756 56.2388 33.7813 56.2586C33.9623 56.2767 34.1004 56.4206 34.1173 56.5949H34.1175L34.4133 59.5696H37.1008V55.187H30.3877V59.5696Z" fill="#5576A5"/>
<path d="M45.1611 62.301H46.7975V47.0192H43.4445C43.4769 48.4957 43.6951 54.2442 45.1611 62.301Z" fill="#E5CBBD"/>
<path d="M55.048 21.5148L52.794 22.5388C52.7178 22.7582 52.622 22.9547 52.5135 23.1309L56.4375 36.0137C56.4402 36.0226 56.4425 36.0314 56.4446 36.0404C56.497 36.272 56.6362 36.4695 56.837 36.5963C57.0376 36.7231 57.2757 36.7642 57.5074 36.712C57.7391 36.6596 57.9364 36.5204 58.0632 36.3196C58.19 36.1188 58.231 35.8808 58.1788 35.6492L55.048 21.5148Z" fill="#E5CBBD"/>
<path d="M52.2251 19.4264C52.8381 19.9821 53.0326 20.8406 52.9761 21.6321L54.8821 20.7661L54.5347 19.1971C54.5099 19.0903 53.8882 16.5149 51.3739 15.924L51.0775 15.8528C50.8065 17.2386 49.3135 18.1396 47.1915 18.1396C45.0697 18.1396 43.5781 17.2381 43.3072 15.8525L43.0108 15.9237C40.4948 16.5149 39.873 19.0904 39.8478 19.1997L39.4992 20.7737L41.3687 21.6231C41.3143 20.8342 41.5097 19.9799 42.1204 19.4264C42.274 19.287 42.5112 19.2988 42.6503 19.4524C42.7894 19.6059 42.7779 19.8431 42.6242 19.9823C42.0433 20.509 42.0004 21.5407 42.2582 22.2877C42.4594 22.8706 42.8156 23.2492 43.1876 23.2758C43.3755 23.2893 43.5242 23.44 43.5353 23.628L43.6633 25.8026C43.6681 25.8856 43.6454 25.9677 43.5985 26.0363C40.7427 30.2173 40.4661 43.8286 40.4395 46.2687H53.9054C53.8789 43.8285 53.6018 30.2164 50.7465 26.0363C50.6997 25.9677 50.6769 25.8855 50.6817 25.8026L50.8097 23.628C50.8208 23.44 50.9695 23.2893 51.1574 23.2758C51.5292 23.2492 51.8855 22.8706 52.0866 22.2879C52.3446 21.5409 52.3018 20.509 51.7207 19.9823C51.5672 19.8431 51.5555 19.6059 51.6946 19.4524C51.8345 19.299 52.0716 19.287 52.2251 19.4264Z" fill="#A881C9"/>
<path d="M47.5478 63.0513V65.2495H50.3584C49.5956 64.4529 49.297 63.5337 49.1856 63.0513H47.5478Z" fill="#998675"/>
<path d="M47.5478 62.301H49.1843C50.651 54.238 50.8686 48.4937 50.9009 47.0192H47.5478V62.301Z" fill="#E5CBBD"/>
<path d="M47.1914 13.4968C46.7861 13.4968 46.3971 13.4015 46.0363 13.2276V14.9019C46.0363 15.0754 45.9173 15.2262 45.7487 15.2667L44.0403 15.6765C44.2309 16.7117 45.4472 17.3892 47.1914 17.3892C48.9358 17.3892 50.1519 16.7118 50.3425 15.6765L48.6343 15.2667C48.4656 15.2262 48.3466 15.0754 48.3466 14.9019V13.2274C47.9857 13.4015 47.5967 13.4968 47.1914 13.4968Z" fill="#E5CBBD"/>
<path d="M13.6994 63.8489C13.3146 64.2566 13.1983 64.8668 13.1644 65.2496H18.0299V63.3993H14.8785C14.3708 63.3993 13.9852 63.5464 13.6994 63.8489Z" fill="#754C24"/>
<path d="M24.4834 63.3993H21.332V65.2496H26.1985C26.1652 64.8671 26.0494 64.2571 25.6601 63.8465C25.3746 63.5456 24.9897 63.3993 24.4834 63.3993Z" fill="#754C24"/>
<path d="M24.9281 35.9935H14.4338V62.649H18.049L19.3059 38.4474L19.3085 38.4476C19.3184 38.2581 19.4682 38.1024 19.6619 38.0922C19.8645 38.0805 20.0455 38.2405 20.0561 38.4474L21.3131 62.649H24.9282V35.9935H24.9281Z" fill="#898785"/>
<path d="M14.4339 20.9895V35.243H19.3055V16.4383L18.5294 14.9193L16.0593 16.0445C16.0097 16.067 15.9566 16.0783 15.9038 16.0783C15.8355 16.0783 15.7677 16.0597 15.7077 16.0229C15.6013 15.9576 15.5343 15.8439 15.5289 15.7193L15.4198 13.2051L14.3254 13.5823C14.3161 13.5855 14.3068 13.5884 14.2973 13.5908C13.3813 13.8285 12.7215 14.2159 12.245 14.6423L14.4129 20.866C14.4156 20.8734 14.4339 20.9294 14.4339 20.9895Z" fill="#BADFE8"/>
<path d="M25.6784 54.0467V54.0896C25.6967 54.179 25.8234 54.3279 26.0468 54.4004C26.1819 54.444 26.3214 54.4484 26.4302 54.4127C26.4972 54.3906 26.5446 54.3549 26.5568 54.3175C26.5605 54.3055 26.5652 54.2938 26.5701 54.2824L28.3547 50.2171L27.2496 49.7817L25.6784 54.0467Z" fill="#D8B4A4"/>
<path d="M34.8558 64.3346V65.2497H37.7672C37.7244 65.0512 37.637 64.8094 37.4591 64.6272C37.267 64.4303 37.0009 64.3347 36.6458 64.3347H34.8558V64.3346Z" fill="#999999"/>
<path d="M30.0293 64.627C29.8515 64.8092 29.764 65.0509 29.7213 65.2495H32.6326V64.3344H30.8424C30.4875 64.3345 30.2214 64.4302 30.0293 64.627Z" fill="#999999"/>
<path d="M31.1894 63.5842H32.6327V60.3199H30.9333L31.1894 63.5842Z" fill="#D8B4A4"/>
<path d="M34.6747 41.541C34.6744 41.541 34.6741 41.541 34.6738 41.541C34.5076 41.5415 34.3667 41.6498 34.318 41.7997C34.2387 41.8416 34.0402 41.903 33.7441 41.9036C33.4495 41.9009 33.2492 41.8437 33.1701 41.8023C33.1207 41.6527 32.9798 41.5449 32.8138 41.5449C32.8135 41.5449 32.8132 41.5449 32.8129 41.5449C32.6057 41.5454 32.4382 41.7137 32.4387 41.9208C32.439 42.0726 32.5062 42.3527 32.9522 42.5246C33.1687 42.608 33.4482 42.6538 33.7394 42.6538C33.7415 42.6538 33.7436 42.6538 33.7458 42.6538C34.0394 42.6532 34.3213 42.606 34.539 42.5211C34.9843 42.3475 35.0501 42.067 35.0498 41.9153C35.0494 41.7085 34.8815 41.541 34.6747 41.541Z" fill="#1C1B1A"/>
<path d="M32.5731 39.9841C32.5731 39.885 32.5326 39.789 32.4637 39.7184C32.324 39.5789 32.072 39.5789 31.9325 39.7184C31.8618 39.789 31.8229 39.885 31.8229 39.9841C31.8229 40.0831 31.8636 40.1806 31.9325 40.2497C32.0015 40.3187 32.0989 40.3592 32.1981 40.3592C32.2972 40.3592 32.3932 40.3187 32.4639 40.2497C32.5328 40.1791 32.5731 40.0831 32.5731 39.9841Z" fill="#1C1B1A"/>
<path d="M35.0253 39.7124C34.9547 39.7814 34.9157 39.879 34.9157 39.978C34.9157 40.0756 34.9547 40.1731 35.0253 40.2422C35.0943 40.3127 35.1918 40.3532 35.2909 40.3532C35.3883 40.3532 35.486 40.3127 35.5565 40.2422C35.6255 40.1731 35.666 40.0756 35.666 39.978C35.666 39.879 35.6255 39.7814 35.5565 39.7124C35.4156 39.5713 35.165 39.5729 35.0253 39.7124Z" fill="#1C1B1A"/>
<path d="M46.1612 10.5377C45.9539 10.5377 45.786 10.7056 45.786 10.9129C45.786 11.3841 46.3563 11.7132 47.1726 11.7132C47.989 11.7132 48.5593 11.3841 48.5593 10.9129C48.5593 10.7056 48.3913 10.5377 48.1841 10.5377C48.0055 10.5377 47.8562 10.6624 47.8182 10.8293C47.7442 10.8773 47.5241 10.9629 47.1725 10.9629C46.8209 10.9629 46.6007 10.8773 46.5267 10.8293C46.4891 10.6623 46.3396 10.5377 46.1612 10.5377Z" fill="#1C1B1A"/>
<path d="M45.9802 9.10906C45.9802 9.01002 45.9396 8.91247 45.8708 8.84344C45.7311 8.70388 45.4791 8.70388 45.3395 8.84344C45.2705 8.91247 45.23 9.01002 45.23 9.10906C45.23 9.20811 45.2707 9.30415 45.3395 9.37468C45.4101 9.44371 45.506 9.48423 45.6052 9.48423C45.7042 9.48423 45.8002 9.44371 45.8709 9.37468C45.9397 9.30415 45.9802 9.20811 45.9802 9.10906Z" fill="#1C1B1A"/>
<path d="M48.7401 9.48423C48.839 9.48423 48.9352 9.44371 49.0057 9.37468C49.0747 9.30415 49.1152 9.20811 49.1152 9.10906C49.1152 9.01002 49.0746 8.91397 49.0057 8.84344C48.8661 8.70388 48.614 8.70388 48.4745 8.84344C48.4054 8.91247 48.3651 9.01002 48.3651 9.10906C48.3651 9.20811 48.4056 9.30415 48.4745 9.37468C48.5448 9.44371 48.6409 9.48423 48.7401 9.48423Z" fill="#1C1B1A"/>
<path d="M19.6809 9.87675C20.4742 9.87675 21.0282 9.55455 21.0282 9.09294C21.0282 8.8857 20.8603 8.71777 20.6531 8.71777C20.4767 8.71777 20.3288 8.83948 20.2886 9.00335C20.2156 9.04822 20.0076 9.12626 19.6809 9.12626C19.3542 9.12626 19.1464 9.04822 19.0733 9.00335C19.0331 8.83948 18.8851 8.71777 18.7088 8.71777C18.5015 8.71777 18.3336 8.8857 18.3336 9.09294C18.3336 9.55455 18.8877 9.87675 19.6809 9.87675Z" fill="#1C1B1A"/>
<path d="M18.3302 7.16275C18.4009 7.09372 18.4412 6.99618 18.4412 6.89713C18.4412 6.79959 18.4007 6.70204 18.3302 6.63301C18.1921 6.4921 17.9387 6.49345 17.8006 6.63301C17.7299 6.70204 17.691 6.79809 17.691 6.89713C17.691 6.99618 17.7301 7.09372 17.8006 7.16275C17.8696 7.23328 17.967 7.2723 18.0647 7.2723C18.1638 7.2723 18.2611 7.23328 18.3302 7.16275Z" fill="#1C1B1A"/>
<path d="M21.297 7.27228C21.3944 7.27228 21.4921 7.23326 21.5612 7.16273C21.6317 7.0922 21.6722 6.99616 21.6722 6.89711C21.6722 6.79957 21.6317 6.70202 21.5612 6.63299C21.4216 6.49343 21.171 6.49343 21.0314 6.63299C20.9609 6.70202 20.9219 6.79807 20.9219 6.89711C20.9219 6.99616 20.9609 7.0937 21.0314 7.16273C21.1005 7.23326 21.198 7.27228 21.297 7.27228Z" fill="#1C1B1A"/>
<path d="M55.2668 19.0333C55.2448 18.9356 54.8202 17.1528 53.2924 16.0056C55.6492 13.3768 52.8661 7.62375 52.4645 6.83064C52.4457 5.50704 52.021 4.43751 51.2014 3.65055C49.701 2.2099 47.4154 2.24231 47.1911 2.24907C46.9625 2.24261 44.68 2.2117 43.1816 3.65055C42.3619 4.43751 41.9372 5.50719 41.9185 6.83064C41.5169 7.62375 38.7348 13.3762 41.0919 16.0052C39.5628 17.1523 39.1382 18.9359 39.1156 19.0351L35.7049 34.4331C34.9816 34.0346 34.2338 33.952 33.7441 33.952C33.3524 33.952 32.7954 34.0049 32.2179 34.2297L32.2931 33.2016C32.2957 33.1683 29.0827 16.7642 29.0827 16.7642C29.0498 16.4677 28.6591 13.7554 25.2671 12.8683L22.2318 11.8222V10.5463C23.0824 9.57298 23.6235 8.12453 23.6235 6.50844L23.6232 2.75149C23.6247 2.71428 23.6504 1.83293 22.9182 1.07193C22.2345 0.360613 21.1453 0 19.6809 0C18.2166 0 17.1272 0.360613 16.4434 1.07178C15.7112 1.83293 15.7369 2.71428 15.7381 2.73679V6.50829C15.7381 8.12437 16.2794 9.57283 17.1298 10.5462V11.822L14.0945 12.8682C10.7024 13.7554 10.3116 16.4678 10.2789 16.7641L7.07465 33.102C7.06819 33.1347 7.06609 33.1682 7.06864 33.2015L7.21511 35.2044L7.06339 36.3538C7.00246 36.8228 7.12777 37.2875 7.41635 37.6622C7.70493 38.0371 8.12197 38.2771 8.59093 38.338C8.66852 38.348 8.74595 38.3531 8.82309 38.3531C9.21131 38.3531 9.58678 38.226 9.89952 37.9853C10.27 37.7002 10.5088 37.2893 10.5732 36.827L10.8927 35.3479L11.9778 33.3536C11.9958 33.3203 12.0089 33.2845 12.0162 33.2472L13.6835 24.8194V35.6185C13.6835 35.6191 13.6838 35.6198 13.6838 35.6206C13.6838 35.6212 13.6835 35.6219 13.6835 35.6227V62.9274C13.4875 63.0333 13.3104 63.1685 13.1539 63.3342C12.33 64.207 12.3997 65.5884 12.403 65.6467C12.4144 65.8453 12.5787 66.0003 12.7775 66.0003H18.4051C18.6123 66.0003 18.7802 65.8324 18.7802 65.6251V63.0356L19.6809 45.6954L20.5817 63.0356V65.6251C20.5817 65.8324 20.7496 66.0003 20.9568 66.0003H26.5844C26.7832 66.0003 26.9475 65.8453 26.9589 65.6467C26.9624 65.5884 27.0319 64.207 26.208 63.3342C26.0515 63.1684 25.8743 63.0332 25.6784 62.9274V55.0622C25.7228 55.0812 25.7682 55.0992 25.8156 55.1145C25.9652 55.1632 26.1187 55.1873 26.2685 55.1873C26.4061 55.1873 26.5404 55.1668 26.6654 55.1256C26.9555 55.0297 27.1722 54.8279 27.2634 54.5698L29.0533 50.4926L29.0935 50.5083C29.2712 50.5781 29.4726 50.5038 29.5623 50.3353L29.6374 50.194V59.9452C29.6374 60.1525 29.8053 60.3204 30.0125 60.3204H30.1809L30.4395 63.6178C30.0584 63.6839 29.7393 63.8482 29.4871 64.1088C28.9062 64.7094 28.929 65.6001 28.9302 65.6377C28.937 65.8399 29.1028 66.0005 29.3053 66.0005H33.0079C33.2151 66.0005 33.383 65.8325 33.383 65.6253V60.3204H33.415C33.5565 60.3204 33.6805 60.2413 33.7443 60.1236C33.8082 60.2415 33.932 60.3204 34.0735 60.3204H34.1055V65.6253C34.1055 65.8325 34.2734 66.0005 34.4806 66.0005H38.1833C38.3857 66.0005 38.5515 65.84 38.5583 65.6377C38.5595 65.6001 38.5823 64.7094 38.0014 64.1088C37.7493 63.8482 37.4301 63.6839 37.0491 63.6178L37.3076 60.3204H37.476C37.6832 60.3204 37.8512 60.1525 37.8512 59.9452V50.194L37.9262 50.3353C38.0159 50.5038 38.2175 50.578 38.395 50.5083L38.4352 50.4926L40.2251 54.5698C40.3163 54.8281 40.5332 55.0299 40.8231 55.1256C40.9481 55.1668 41.0826 55.1873 41.2202 55.1873C41.3698 55.1873 41.5235 55.1632 41.6731 55.1145C42.3184 54.9055 42.6903 54.3294 42.5148 53.7893L40.9375 49.5068L41.4445 49.3071C41.546 49.267 41.6251 49.1849 41.6611 49.0821C41.6971 48.9792 41.6866 48.8657 41.6324 48.7712L40.6265 47.0194H42.6942C42.7264 48.5168 42.9487 54.4248 44.4684 62.6828C44.4205 62.9706 44.1111 64.4594 42.732 65.3052C42.5888 65.3931 42.5214 65.5653 42.5669 65.727C42.6125 65.8887 42.76 66.0003 42.928 66.0003H51.4174C51.5854 66.0003 51.7329 65.8887 51.7785 65.727C51.8241 65.5653 51.7566 65.3931 51.6134 65.3052C50.2337 64.459 49.9247 62.9692 49.8772 62.6825C51.3957 54.4292 51.6185 48.5207 51.6511 47.0194H54.2835C54.4907 47.0194 54.6586 46.8515 54.6586 46.6443C54.6586 45.9873 54.6217 30.6104 51.4383 25.7215L51.542 23.9597C51.6751 23.9165 51.8027 23.8525 51.9236 23.7706L55.7158 36.2202C55.8147 36.6412 56.07 36.9997 56.4362 37.2309C56.7015 37.3986 57.0021 37.4849 57.3084 37.4849C57.4296 37.4849 57.5515 37.4714 57.6726 37.444C58.0997 37.3475 58.4637 37.0906 58.6975 36.7204C58.9315 36.3502 59.007 35.9111 58.9108 35.4855L55.2668 19.0333ZM47.5666 3.00706C48.2351 3.04503 49.6903 3.23997 50.6817 4.1917C51.367 4.84989 51.7147 5.76876 51.7147 6.92248C51.7147 6.98296 51.7294 7.04269 51.7574 7.09626C51.7904 7.15944 54.9485 13.2866 52.644 15.5985C52.3174 15.4297 51.9541 15.2897 51.5471 15.1941L49.097 14.6061V12.718C50.0022 11.9004 50.5984 10.5178 50.5984 8.9532V7.91938H50.5979C50.5981 7.7426 50.4732 7.58503 50.2933 7.55082C50.266 7.54556 47.5666 7.01222 47.5666 5.27203V3.00706ZM48.6343 15.2667L50.3425 15.6765C50.1519 16.7117 48.9358 17.3893 47.1914 17.3893C45.4472 17.3893 44.2307 16.7119 44.0403 15.6765L45.7486 15.2667C45.9173 15.2262 46.0363 15.0754 46.0363 14.9019V13.2276C46.3971 13.4015 46.7861 13.4968 47.1914 13.4968C47.5967 13.4968 47.9857 13.4015 48.3466 13.2274V14.9019C48.3466 15.0754 48.4656 15.2262 48.6343 15.2667ZM47.1914 6.55121C47.8568 7.58368 49.2326 8.05189 49.848 8.21607V8.9532C49.848 11.0448 48.6564 12.7466 47.1914 12.7466C45.7264 12.7466 44.5347 11.0448 44.5347 8.9532V8.21607C45.1503 8.05189 46.526 7.58368 47.1914 6.55121ZM42.6256 7.09626C42.6535 7.04269 42.6682 6.98296 42.6682 6.92248C42.6682 5.77041 43.0147 4.85275 43.698 4.1947C44.6856 3.24402 46.1459 3.04653 46.8161 3.00751V5.27188C46.8161 7.00577 44.1162 7.54556 44.0889 7.55082C43.9091 7.58518 43.7845 7.7426 43.7847 7.91938H43.7843V8.9532C43.7843 10.518 44.3805 11.9005 45.2858 12.7181V14.6061L42.8373 15.1938C42.4297 15.2895 42.066 15.4298 41.7391 15.599C39.4341 13.287 42.5927 7.15944 42.6256 7.09626ZM39.3332 21.5226L41.5478 22.5286C41.5481 22.5298 41.5485 22.5313 41.549 22.5325C41.6284 22.7623 41.7289 22.967 41.8437 23.1495L37.9267 36.0137C37.924 36.0224 37.9217 36.0314 37.9196 36.0403C37.8608 36.3004 37.6882 36.5144 37.4595 36.6322C37.1904 35.8577 36.8025 35.303 36.3683 34.9076L39.3332 21.5226ZM33.7443 43.5414C31.8975 43.5414 30.3953 41.6173 30.3953 39.2521C30.3953 39.1829 30.3967 39.1152 30.3979 39.0475H31.5788C31.7078 39.0475 31.8279 38.9812 31.8965 38.8718L32.5092 37.8957L33.1219 38.8718C33.1905 38.981 33.3106 39.0475 33.4396 39.0475H37.0908C37.092 39.1152 37.0933 39.1829 37.0933 39.2521C37.0932 41.6171 35.5908 43.5414 33.7443 43.5414ZM35.0763 44.0172V44.4945C35.0113 44.656 34.4538 45.12 33.7468 45.12C33.7461 45.12 33.7455 45.1202 33.7443 45.12C33.7435 45.1202 33.7425 45.12 33.7417 45.12C33.0349 45.12 32.4771 44.6562 32.4123 44.4945V44.0172C32.8302 44.1942 33.278 44.2916 33.7443 44.2916C34.2105 44.2918 34.6583 44.1942 35.0763 44.0172ZM29.8365 37.3142C29.6728 37.1562 29.5904 36.9457 29.5308 36.7137C29.5281 36.7036 29.2895 35.5907 29.2895 35.5907H30.5378C30.2408 36.0368 29.9944 36.5998 29.8365 37.3142ZM35.8266 43.5905C37.0327 42.7122 37.8435 41.0967 37.8435 39.2519C37.8435 38.5286 37.7772 37.9043 37.6615 37.3633C38.1483 37.1669 38.5244 36.7453 38.6482 36.2201L42.4362 23.779C42.5528 23.8561 42.6753 23.9178 42.8031 23.9594L42.9067 25.7212C40.181 29.907 39.7621 41.7805 39.6979 45.5211C39.3343 45.1394 38.6567 44.6728 37.4506 44.5179L35.8265 44.205V43.5905H35.8266ZM33.7443 34.7021C35.6873 34.7021 36.8174 35.9407 37.0482 38.297H33.6472L32.8269 36.9905L32.8258 36.9911C32.7967 36.9446 32.7582 36.9033 32.7086 36.8723C32.5334 36.7623 32.3017 36.8151 32.1915 36.9905L31.3712 38.297H30.4405C30.6712 35.9407 31.8012 34.7021 33.7443 34.7021ZM31.4349 34.6526C31.3541 34.7105 31.2746 34.773 31.196 34.8404H29.0474L28.3448 33.5493H31.5155L31.4349 34.6526ZM28.3376 16.8525C28.3388 16.8655 28.3408 16.8787 28.3432 16.8916L31.4632 32.799H28.0217L25.6909 21.0169L27.6893 15.2796C28.25 16.0628 28.3324 16.7981 28.3376 16.8525ZM23.4582 16.0784C23.5263 16.0784 23.5943 16.0598 23.6543 16.023C23.7607 15.9578 23.8276 15.844 23.833 15.7195L23.9421 13.2052L25.0366 13.5825C25.0459 13.5856 25.0552 13.5885 25.0646 13.5909C25.9806 13.8286 26.6405 14.2162 27.1171 14.6424L24.9491 20.8662C24.9465 20.8734 24.9282 20.9231 24.9282 20.9895V35.243H20.0566V16.4383L20.8327 14.9191L23.3028 16.0445C23.3522 16.0672 23.4052 16.0784 23.4582 16.0784ZM19.6809 15.5239L17.8801 11.9993V11.2227C18.4204 11.5974 19.0324 11.8105 19.6809 11.8105C20.3295 11.8105 20.9415 11.5975 21.4818 11.2227V11.9993L19.6809 15.5239ZM23.2018 12.9501L23.1074 15.1312L21.1743 14.2504L22.0427 12.5506L23.2018 12.9501ZM16.9956 1.57991C17.5344 1.02947 18.4379 0.750339 19.6809 0.750339C20.924 0.750339 21.8275 1.02947 22.3663 1.57991C22.8811 2.10605 22.8744 2.70032 22.8736 2.73679V4.65315C22.3393 4.48868 22.0679 3.93913 22.0679 3.01051C22.0679 2.80327 21.9 2.63534 21.6928 2.63534H21.6925C21.4852 2.63534 21.3173 2.80327 21.3173 3.01051C21.3173 3.30464 20.6799 3.73189 19.6811 3.73189C18.6822 3.73189 18.0449 3.30464 18.0449 3.01051C18.0449 2.80327 17.877 2.63534 17.6697 2.63534H17.6694C17.4622 2.63534 17.2943 2.80327 17.2943 3.01051C17.2943 3.93928 17.0228 4.48868 16.4884 4.65315V2.72538C16.4877 2.70032 16.4809 2.10605 16.9956 1.57991ZM16.4883 6.50829V5.4257C17.2114 5.3034 17.7059 4.81538 17.9214 4.02287C18.351 4.308 18.9692 4.48223 19.6809 4.48223C20.3926 4.48223 21.0107 4.308 21.4405 4.02287C21.656 4.81538 22.1502 5.30385 22.8736 5.4263V6.50829C22.8736 9.01818 21.4414 11.06 19.6811 11.06C17.9205 11.06 16.4883 9.01818 16.4883 6.50829ZM17.3192 12.5506L18.1876 14.2506L16.2544 15.1312L16.1601 12.9501L17.3192 12.5506ZM9.8365 36.6829C9.83424 36.6931 9.83259 36.7035 9.83109 36.7138C9.79613 36.9841 9.65776 37.2245 9.44167 37.3908C9.22572 37.557 8.95755 37.6291 8.68758 37.5941C8.4173 37.559 8.1772 37.4208 8.01077 37.2048C7.84464 36.9889 7.77231 36.721 7.80743 36.4513L7.92088 35.5908H10.0726L9.8365 36.6829ZM10.3145 34.8404H7.94069L7.8463 33.5493H11.0169L10.3145 34.8404ZM11.34 32.799H7.89852L11.0186 16.8916C11.021 16.8796 11.0228 16.8661 11.024 16.854C11.0294 16.7987 11.1116 16.063 11.6723 15.2798L13.6707 21.0169L11.34 32.799ZM12.2451 14.6424C12.7216 14.2161 13.3812 13.8285 14.2974 13.5909C14.3067 13.5885 14.3162 13.5856 14.3255 13.5825L15.4199 13.2052L15.529 15.7195C15.5344 15.844 15.6014 15.9578 15.7078 16.023C15.7676 16.0598 15.8356 16.0784 15.9039 16.0784C15.9569 16.0784 16.0098 16.0672 16.0594 16.0447L18.5295 14.9194L19.3056 16.4384V35.2433H14.4338V20.9898C14.4338 20.9297 14.4155 20.8737 14.413 20.8665L12.2451 14.6424ZM18.0299 65.2497H13.1644C13.1985 64.867 13.3146 64.2567 13.6994 63.8489C13.985 63.5462 14.3708 63.3992 14.8783 63.3992H18.0298V65.2497H18.0299ZM20.056 38.4474C20.0453 38.2404 19.8643 38.0806 19.6617 38.0922C19.468 38.1022 19.3182 38.258 19.3083 38.4475L19.3058 38.4474L18.0488 62.649H14.4337V35.9935H24.9279V62.649H21.3128L20.056 38.4474ZM26.1985 65.2497H21.332V63.3993H24.4834C24.9897 63.3993 25.3747 63.5456 25.6601 63.8465C26.0492 64.257 26.1652 64.8671 26.1985 65.2497ZM25.6781 35.6203C25.6781 35.6197 25.6784 35.6189 25.6784 35.6182V24.8191C25.6784 24.8191 27.3661 33.32 27.3841 33.3535L28.4692 35.3477L28.7889 36.827C28.9892 37.5807 29.2152 37.8719 29.7046 38.1369C29.6668 38.4809 29.645 38.85 29.645 39.2519C29.645 41.0967 30.4558 42.7122 31.6619 43.5905V44.2052L30.0377 44.5181C28.0986 44.7671 27.5244 45.8219 27.4276 46.0344L25.8561 48.7709C25.8019 48.8654 25.7913 48.979 25.8274 49.0818C25.8634 49.1846 25.9427 49.2667 26.044 49.3068L26.5511 49.5065L25.6784 51.8764V35.6224C25.6784 35.6218 25.6781 35.621 25.6781 35.6203ZM26.57 54.2824C26.565 54.294 26.5604 54.3057 26.5566 54.3175C26.5445 54.355 26.4972 54.3906 26.4301 54.4127C26.3213 54.4485 26.1819 54.4442 26.0467 54.4004C25.8232 54.3279 25.6966 54.1789 25.6783 54.0896V54.0466L27.2493 49.7816L28.3544 50.2169L26.57 54.2824ZM32.6327 65.2497H29.7214C29.7642 65.051 29.8517 64.8092 30.0295 64.6272C30.2216 64.4303 30.4876 64.3347 30.8427 64.3347H32.6329V65.2497H32.6327ZM32.6327 63.5842H31.1895L30.9335 60.3199H32.6327V63.5842ZM37.4592 64.627C37.6372 64.8092 37.7245 65.0511 37.7673 65.2495H34.856V64.3344H36.6461C37.001 64.3345 37.267 64.4303 37.4592 64.627ZM34.8558 63.5842V60.3199H36.5549L36.299 63.5842H34.8558ZM37.1008 59.5696H34.4133L34.1175 56.5949H34.1173C34.1004 56.4206 33.9623 56.2767 33.7813 56.2586C33.5756 56.2388 33.3915 56.3888 33.371 56.5949L33.0753 59.5696H30.3877V55.187H37.1008V59.5696ZM41.8059 54.0342C41.8347 54.1236 41.7043 54.3153 41.4417 54.4004C41.3068 54.444 41.1671 54.4485 41.0583 54.4127C40.9913 54.3906 40.9439 54.3549 40.9318 54.3175C40.928 54.3055 40.9234 54.2938 40.9184 54.2824L39.1337 50.2171L40.2389 49.7817L41.8059 54.0342ZM40.7653 48.7679L38.4316 49.687L37.8073 48.5121C37.7265 48.3601 37.5527 48.2824 37.3854 48.3241C37.2182 48.3657 37.1008 48.5159 37.1008 48.6882V54.4367H30.3877V48.6882C30.3877 48.5159 30.2705 48.3658 30.1032 48.3241C29.9361 48.2824 29.7619 48.36 29.6812 48.5121L29.0569 49.687L26.7232 48.7679C26.7232 48.7679 28.1053 46.3573 28.1113 46.3432C28.1263 46.3076 28.6349 45.5102 30.144 45.2609C30.1519 45.2596 31.8138 44.9402 31.8138 44.9402C32.1336 45.4183 32.9189 45.8705 33.742 45.8705H33.7467C34.5692 45.8705 35.3543 45.4188 35.6744 44.9402C35.6744 44.9402 37.3367 45.2599 37.3447 45.2611C38.944 45.479 39.3551 46.3009 39.3751 46.3378C39.382 46.3558 40.7653 48.7679 40.7653 48.7679ZM46.7975 65.2497H43.9868C44.7496 64.4531 45.0483 63.5339 45.1596 63.0515H46.7975V65.2497ZM46.7975 62.301H45.1611C43.6951 54.2441 43.4769 48.4956 43.4445 47.0191H46.7975V62.301ZM50.3586 65.2497H47.548V63.0515H49.1859C49.297 63.5339 49.5958 64.4531 50.3586 65.2497ZM49.1843 62.301H47.5478V47.0191H50.9009C50.8687 48.4938 50.6512 54.238 49.1843 62.301ZM51.7213 19.9823C52.3023 20.509 52.345 21.5409 52.0872 22.2879C51.886 22.8708 51.5299 23.2493 51.158 23.2758C50.9701 23.2893 50.8214 23.44 50.8103 23.628L50.6823 25.8027C50.6775 25.8855 50.7001 25.9677 50.7471 26.0363C53.6023 30.2165 53.8795 43.8285 53.906 46.2688H40.4401C40.4667 43.8287 40.7433 30.2174 43.5991 26.0363C43.6459 25.9677 43.6687 25.8857 43.6639 25.8027L43.5359 23.628C43.5248 23.44 43.3761 23.2893 43.1882 23.2758C42.8162 23.2493 42.4599 22.8706 42.2588 22.2878C42.0008 21.5407 42.0438 20.5089 42.6248 19.9823C42.7783 19.8432 42.7901 19.6059 42.6509 19.4524C42.5117 19.299 42.2746 19.287 42.121 19.4264C41.5104 19.98 41.3149 20.8342 41.3694 21.6231L39.4998 20.7737L39.8484 19.1997C39.8736 19.0903 40.4954 16.515 43.0114 15.9237L43.3078 15.8526C43.5787 17.2381 45.0703 18.1396 47.1921 18.1396C49.3142 18.1396 50.8073 17.2386 51.0782 15.8529L51.3745 15.924C53.8889 16.515 54.5105 19.0903 54.5353 19.1971L54.8827 20.7661L52.9767 21.6321C53.0332 20.8407 52.8387 19.982 52.2257 19.4264C52.0722 19.287 51.8351 19.299 51.6958 19.4524C51.5561 19.6058 51.5677 19.843 51.7213 19.9823ZM58.0632 36.3196C57.9364 36.5202 57.7391 36.6596 57.5074 36.712C57.2757 36.7642 57.0376 36.7233 56.837 36.5963C56.6362 36.4695 56.4968 36.272 56.4446 36.0405C56.4425 36.0314 56.4402 36.0224 56.4375 36.0137L52.5135 23.1309C52.6222 22.9547 52.7178 22.7582 52.794 22.5388L55.048 21.5148L58.1788 35.6492C58.2311 35.8808 58.19 36.1188 58.0632 36.3196Z" fill="#1C1B1A"/>
</g>
<defs>
<clipPath id="clip0_5_309">
<rect width="66" height="66" fill="white"/>
</clipPath>
</defs>
</svg>
