<svg width="69" height="69" viewBox="0 0 69 69" fill="none" xmlns="http://www.w3.org/2000/svg">
<g clip-path="url(#clip0_1_150)">
<path d="M39.3995 2.35165C36.6542 2.35165 34.5004 5.41259 34.5004 5.41259C34.5004 5.41259 32.4687 2.35165 29.6001 2.35165C26.8099 2.35165 24.5313 4.65305 24.3822 7.43933C24.2981 9.01339 24.8058 10.2115 25.5206 11.2965C26.9494 13.4643 33.1955 18.6831 34.5096 18.6831C35.8508 18.6831 42.0414 13.4833 43.4794 11.2965C44.1959 10.2066 44.7019 9.01339 44.6177 7.43933C44.4685 4.65305 42.19 2.35165 39.3995 2.35165Z" fill="#DE5E88"/>
<path d="M5.44653 42.8781L11.1265 66.6483H57.8735L63.5533 42.8781H5.44653Z" fill="#CFEB70"/>
<path d="M61.998 34.9441C58.516 25.3203 47.5239 18.2907 34.5 18.2907C21.4761 18.2907 10.4839 25.3204 7.002 34.9441C4.05157 36.1117 1.96338 38.9881 1.96338 42.354C1.96338 46.7548 5.53089 50.3224 9.93194 50.3224C14.1564 50.3224 17.6113 47.0344 17.8815 42.8781H18.3614C18.6316 47.0346 22.0862 50.3224 26.3109 50.3224C30.5357 50.3224 33.9903 47.0344 34.2605 42.8781H34.7401C35.0103 47.0346 38.4649 50.3224 42.6897 50.3224C46.9145 50.3224 50.369 47.0344 50.6392 42.8781H51.1191C51.3893 47.0346 54.8439 50.3224 59.0687 50.3224C63.4695 50.3224 67.0373 46.7549 67.0373 42.354C67.0366 38.9881 64.9484 36.1117 61.998 34.9441Z" fill="#FECC85"/>
<path d="M50.445 37.1553C50.3174 37.1553 50.1878 37.1417 50.0601 37.1162C49.9364 37.0926 49.8127 37.0552 49.693 37.0061C49.5753 36.957 49.4614 36.8961 49.3553 36.8255C49.2474 36.7529 49.1472 36.6704 49.0568 36.5801C48.9664 36.4898 48.8841 36.3897 48.8114 36.2816C48.7408 36.1755 48.6818 36.0617 48.6327 35.9437C48.5837 35.8242 48.5443 35.7002 48.5188 35.5766C48.4934 35.4491 48.4815 35.3194 48.4815 35.1917C48.4815 35.0643 48.4932 34.9345 48.5188 34.809C48.5443 34.6831 48.5837 34.5594 48.6327 34.4419C48.6818 34.3239 48.7407 34.2082 48.8114 34.1023C48.8841 33.9944 48.9665 33.8942 49.0568 33.8038C49.1471 33.7134 49.2472 33.631 49.3553 33.5603C49.4614 33.4897 49.5753 33.4287 49.693 33.3797C49.8129 33.3306 49.9366 33.2933 50.0601 33.2678C50.3134 33.2168 50.5745 33.2168 50.8279 33.2678C50.9535 33.2933 51.0772 33.3306 51.195 33.3797C51.3148 33.4287 51.4287 33.4897 51.5346 33.5603C51.6426 33.6309 51.7427 33.7134 51.8331 33.8038C51.9236 33.8942 52.0059 33.9942 52.0766 34.1023C52.1473 34.2084 52.2082 34.3222 52.2572 34.4419C52.3063 34.5597 52.3456 34.6833 52.3691 34.809C52.3946 34.9346 52.4083 35.0643 52.4083 35.1917C52.4083 35.7103 52.1982 36.2148 51.833 36.5798C51.4679 36.9449 50.9613 37.1553 50.445 37.1553Z" fill="black"/>
<path d="M52.7397 22.0371C55.7399 22.0371 58.172 19.605 58.172 16.6049C58.172 13.6047 55.7399 11.1726 52.7397 11.1726C49.7395 11.1726 47.3074 13.6047 47.3074 16.6049C47.3074 19.605 49.7395 22.0371 52.7397 22.0371Z" fill="#DE5E88"/>
<path d="M16.2611 22.0371C19.2612 22.0371 21.6933 19.605 21.6933 16.6049C21.6933 13.6047 19.2612 11.1726 16.2611 11.1726C13.2609 11.1726 10.8288 13.6047 10.8288 16.6049C10.8288 19.605 13.2609 22.0371 16.2611 22.0371Z" fill="#DE5E88"/>
<path d="M69 42.3541C69 38.5551 66.8846 35.1644 63.5405 33.4855C61.9833 29.6623 59.2791 26.168 55.7422 23.3612C58.3274 22.2075 60.1347 19.6142 60.1347 16.6053C60.1347 12.5273 56.8171 9.20961 52.739 9.20961C48.661 9.20961 45.3434 12.5273 45.3434 16.605C45.3434 17.076 45.3895 17.5362 45.4741 17.9831C43.9475 17.5024 42.3752 17.124 40.7678 16.851C42.4165 15.4385 44.2851 13.6443 45.1202 12.375C45.8062 11.3314 46.7036 9.67347 46.5782 7.33421C46.3698 3.43921 43.2165 0.387985 39.3994 0.387985C37.37 0.387985 35.6772 1.46355 34.5236 2.48925C33.3856 1.4591 31.698 0.387985 29.5999 0.387985C25.783 0.387985 22.6297 3.43921 22.4214 7.33434C22.2963 9.67846 23.1944 11.3346 23.881 12.3769C24.7098 13.6342 26.5894 15.43 28.2506 16.8476C26.6367 17.1208 25.0581 17.5004 23.5256 17.983C23.6103 17.5364 23.6564 17.076 23.6564 16.6049C23.6564 12.5269 20.3387 9.2092 16.2607 9.2092C12.1827 9.2092 8.86529 12.527 8.86529 16.6049C8.86529 19.6138 10.6726 22.2071 13.2578 23.3608C9.72091 26.1677 7.01671 29.662 5.45949 33.4851C2.11542 35.1645 0 38.5552 0 42.3541C0 46.2047 2.20396 49.5478 5.41529 51.1949L9.21689 67.1045C9.42793 67.9883 10.2181 68.6116 11.1265 68.6116H57.8732C58.7817 68.6116 59.5718 67.9882 59.7828 67.1045L63.5844 51.1949C66.796 49.5478 69 46.2047 69 42.3541ZM52.739 13.1364C54.6518 13.1364 56.2078 14.6927 56.2078 16.6051C56.2078 18.5176 54.6518 20.0739 52.739 20.0739C50.8265 20.0739 49.2703 18.5176 49.2703 16.6051C49.2703 14.6927 50.8265 13.1364 52.739 13.1364ZM27.1603 10.2164C26.5296 9.25934 26.2928 8.48511 26.3429 7.54444C26.4382 5.76406 27.8993 4.31533 29.6001 4.31533C31.062 4.31533 32.456 5.8972 32.8645 6.49853C33.2215 7.03638 33.8223 7.36089 34.4678 7.37221C35.1132 7.38906 35.7254 7.07398 36.1014 6.54933C36.5169 5.96971 38.0141 4.31533 39.3995 4.31533C41.1004 4.31533 42.5618 5.76392 42.6571 7.54458C42.7074 8.48295 42.4703 9.25772 41.8391 10.2178C40.8177 11.7708 36.922 15.12 35.0063 16.3355C34.8375 16.3332 34.186 16.3329 34.0287 16.3349C32.1078 15.107 28.1473 11.7141 27.1603 10.2164ZM16.261 13.1364C18.1735 13.1364 19.7297 14.6927 19.7297 16.6051C19.7297 18.5176 18.1737 20.0739 16.261 20.0739C14.3482 20.0739 12.7922 18.5176 12.7922 16.6051C12.7922 14.6927 14.3481 13.1364 16.261 13.1364ZM56.3237 64.6848H12.6761L9.71202 52.2803C9.78547 52.2819 9.85824 52.2858 9.93196 52.2858C13.3085 52.2858 16.3227 50.5789 18.1213 47.9638C19.9197 50.5786 22.934 52.2858 26.3106 52.2858C29.6871 52.2858 32.7013 50.5789 34.4999 47.9638C36.2983 50.5786 39.3126 52.2858 42.6892 52.2858C46.0659 52.2858 49.0799 50.5789 50.8785 47.9638C52.6769 50.5786 55.6912 52.2858 59.0678 52.2858C59.1416 52.2858 59.2143 52.2816 59.2877 52.2803L56.3237 64.6848ZM59.068 48.3592C55.9136 48.3592 53.2824 45.8956 53.078 42.751C53.0109 41.7183 52.1536 40.9148 51.1186 40.9148H50.6387C49.6039 40.9148 48.7466 41.7183 48.6794 42.751C48.4749 45.8959 45.844 48.3592 42.6893 48.3592C39.5346 48.3592 36.9034 45.8956 36.6991 42.751C36.632 41.7183 35.7747 40.9148 34.7397 40.9148H34.2601C33.2253 40.9148 32.368 41.7183 32.3008 42.751C32.0963 45.8959 29.4652 48.3592 26.3106 48.3592C23.156 48.3592 20.5247 45.8956 20.3205 42.751C20.2534 41.7183 19.3961 40.9148 18.3611 40.9148H17.8812C16.8464 40.9148 15.9891 41.7183 15.9219 42.751C15.7174 45.8959 13.0863 48.3592 9.93182 48.3592C6.62036 48.3592 3.92653 45.6653 3.92653 42.3543C3.92653 40.1717 5.08242 38.2128 6.93275 37.1519C6.95903 37.1531 6.98504 37.1561 7.01145 37.1561H44.5856C45.6701 37.1561 46.549 36.2769 46.549 35.1927C46.549 34.1085 45.6699 33.2293 44.5856 33.2293H9.91174C13.8582 25.8212 22.8955 20.7232 33.0854 20.2882L35.9412 20.2895C47.1797 20.7784 57.0135 26.9388 60.1517 35.6125C60.3432 36.1414 60.7523 36.5631 61.2754 36.7701C63.5824 37.6832 65.0731 39.8751 65.0731 42.3545C65.0732 45.6653 62.3794 48.3592 59.068 48.3592Z" fill="black"/>
</g>
<defs>
<clipPath id="clip0_1_150">
<rect width="69" height="69" fill="white"/>
</clipPath>
</defs>
</svg>
