<svg width="66" height="66" viewBox="0 0 66 66" fill="none" xmlns="http://www.w3.org/2000/svg">
<g clip-path="url(#clip0_1_52)">
<path d="M7.3488 16.5501H12.7586C13.1415 16.5501 13.4519 16.2397 13.4519 15.8569V5.22172C13.4519 2.95955 15.3006 1.10924 17.5611 1.10924C19.821 1.10924 21.6699 2.95981 21.6699 5.22172V15.8569C21.6699 16.2397 21.9803 16.5501 22.3631 16.5501H27.0797C27.4625 16.5501 27.7729 16.8604 27.7729 17.2434V48.7564C27.7729 49.1393 27.4625 49.4496 27.0797 49.4496H22.3631C21.9803 49.4496 21.6699 49.76 21.6699 50.1429V60.7781C21.6699 63.0401 19.8208 64.8906 17.5611 64.8906C15.3008 64.8906 13.4519 63.0402 13.4519 60.7781V50.1429C13.4519 49.76 13.1415 49.4496 12.7586 49.4496H8.04206C7.65921 49.4496 7.3488 49.1393 7.3488 48.7564V16.5501Z" fill="#CF8F3D"/>
<path d="M16.5001 64.75C14.7498 64.2787 13.4519 62.6732 13.4519 60.7783V50.143C13.4519 49.7602 13.1415 49.4498 12.7586 49.4498H8.04206C7.65908 49.4498 7.3488 49.1394 7.3488 48.7565V16.5501H12.7586C13.1415 16.5501 13.4519 16.2397 13.4519 15.8569V5.22172C13.4519 3.32655 14.7499 1.72115 16.5001 1.25V64.75Z" fill="#B76700"/>
<path d="M58.6512 1.10924V15.0119C58.6512 20.6327 54.0556 25.2323 48.4389 25.2323H48.4382C42.8222 25.2323 38.2266 20.6331 38.2266 15.0119V1.10924H58.6512Z" fill="#9E9E9E"/>
<path d="M52.5476 53.2584V55.6673V59.9751C52.5476 62.237 50.6986 64.0874 48.4389 64.0874C46.1779 64.0874 44.3296 62.237 44.3296 59.9751V55.6673V53.2584V48.9509C44.3296 46.6887 46.1779 44.8383 48.4389 44.8383C50.6987 44.8383 52.5476 46.6887 52.5476 48.9509V53.2584Z" fill="#C13421"/>
<path d="M52.5476 48.9512V53.2587V55.6675V59.9753C52.5476 62.2372 50.6986 64.0877 48.4389 64.0877C48.4388 64.0877 48.4386 64.0877 48.4386 64.0877V44.8384C48.4388 44.8384 48.4389 44.8384 48.4389 44.8384C50.6986 44.8384 52.5476 46.689 52.5476 48.9512Z" fill="#FF4328"/>
<path d="M27.0795 15.4407H22.779V5.22172C22.779 2.34248 20.4383 0 17.5611 0C14.6834 0 12.3424 2.34248 12.3424 5.22172V15.4409H7.3488C6.73624 15.4409 6.23957 15.9376 6.23957 16.5501V48.7564C6.23957 49.7502 7.04819 50.5589 8.04206 50.5589H12.3426V60.7782C12.3426 63.6575 14.6837 65.9999 17.5614 65.9999C20.4384 65.9999 22.7792 63.6574 22.7792 60.7782V50.5589H27.0798C28.0737 50.5589 28.8823 49.7502 28.8823 48.7564V17.2432C28.882 16.2494 28.0734 15.4407 27.0795 15.4407ZM26.6636 48.3404H22.363C21.3691 48.3404 20.5605 49.149 20.5605 50.1429V60.7782C20.5605 62.4341 19.215 63.7814 17.5611 63.7814C15.9069 63.7814 14.561 62.4342 14.561 60.7782V50.1429C14.561 49.149 13.7523 48.3404 12.7585 48.3404H8.45804V17.6592H12.7586C13.7525 17.6592 14.5611 16.8506 14.5611 15.8567V5.22172C14.5611 3.5658 15.907 2.21847 17.5613 2.21847C19.2151 2.21847 20.5606 3.56567 20.5606 5.22172V15.8569C20.5606 16.8507 21.3693 17.6594 22.3631 17.6594H26.6637V48.3403H26.6636V48.3404ZM58.6512 0H38.2264C37.6139 0 37.1172 0.496675 37.1172 1.10924V15.0119C37.1172 20.8848 41.6058 25.7274 47.3303 26.2866C47.3303 26.2912 47.3296 26.2955 47.3296 26.3V43.7705C47.3296 43.7967 47.3317 43.8224 47.3336 43.848C44.9852 44.3568 43.2201 46.451 43.2201 48.9509V59.9749C43.2201 62.8541 45.5612 65.1965 48.4386 65.1965C51.3158 65.1965 53.6566 62.8542 53.6566 59.9749V48.9509C53.6566 46.451 51.8919 44.3568 49.5439 43.848C49.5458 43.8224 49.5479 43.7967 49.5479 43.7705V26.3002C49.5479 26.2957 49.5472 26.2912 49.5472 26.2866C55.2715 25.7273 59.7604 20.8848 59.7604 15.012V1.10924C59.7604 0.496675 59.2638 0 58.6512 0ZM51.4383 48.9512V59.9752C51.4383 61.6311 50.0928 62.9783 48.4388 62.9783C46.7845 62.9783 45.4387 61.6311 45.4387 59.9752V48.9512C45.4387 47.2951 46.7845 45.9478 48.4388 45.9478C50.0928 45.9475 51.4383 47.295 51.4383 48.9512ZM57.542 15.0119C57.542 20.0357 53.4584 24.1231 48.4389 24.1231H48.4384C43.4193 24.1231 39.3359 20.0359 39.3359 15.0119V2.21847H57.5421V15.0119H57.542ZM50.3907 15.192V7.32289C50.3907 6.71033 50.8873 6.21366 51.4999 6.21366C52.1126 6.21366 52.6091 6.71033 52.6091 7.32289V15.1918C52.6091 15.8044 52.1126 16.3011 51.4999 16.3011C50.8873 16.3012 50.3907 15.8047 50.3907 15.192ZM44.2679 15.192V7.32289C44.2679 6.71033 44.7645 6.21366 45.3771 6.21366C45.9897 6.21366 46.4863 6.71033 46.4863 7.32289V15.1918C46.4863 15.8044 45.9897 16.3011 45.3771 16.3011C44.7645 16.3012 44.2679 15.8047 44.2679 15.192ZM21.6699 22.2663C22.2826 22.2663 22.7791 22.763 22.7791 23.3756V42.6243C22.7791 43.2369 22.2826 43.7336 21.6699 43.7336C21.0573 43.7336 20.5606 43.2369 20.5606 42.6243V23.3756C20.5606 22.763 21.0572 22.2663 21.6699 22.2663Z" fill="black"/>
<g clip-path="url(#clip1_1_52)">
<path d="M431 353.28C431 325.09 415.303 299.93 390.489 287.472C378.934 259.103 358.868 233.174 332.623 212.347C351.806 203.786 365.217 184.543 365.217 162.216C365.217 131.956 340.599 107.338 310.339 107.338C280.079 107.338 255.461 131.956 255.461 162.214C255.461 165.709 255.803 169.124 256.431 172.44C245.103 168.873 233.436 166.065 221.509 164.039C233.743 153.558 247.608 140.245 253.805 130.826C258.895 123.082 265.554 110.78 264.624 93.422C263.077 64.52 239.679 41.879 211.355 41.879C196.296 41.879 183.735 49.86 175.175 57.471C166.731 49.827 154.208 41.879 138.64 41.879C110.317 41.879 86.919 64.52 85.373 93.423C84.445 110.817 91.109 123.106 96.204 130.84C102.354 140.17 116.301 153.495 128.628 164.014C116.652 166.041 104.938 168.858 93.567 172.439C94.195 169.125 94.537 165.709 94.537 162.213C94.537 131.953 69.919 107.335 39.659 107.335C9.39899 107.335 -15.217 131.954 -15.217 162.213C-15.217 184.54 -1.806 203.783 17.377 212.344C-8.868 233.172 -28.934 259.101 -40.489 287.469C-65.303 299.931 -81 325.091 -81 353.28C-81 381.852 -64.646 406.659 -40.817 418.881L-12.608 536.935C-11.042 543.493 -5.179 548.118 1.562 548.118H348.436C355.177 548.118 361.04 543.492 362.606 536.935L390.815 418.881C414.646 406.659 431 381.852 431 353.28ZM310.339 136.476C324.532 136.476 336.078 148.024 336.078 162.215C336.078 176.406 324.532 187.954 310.339 187.954C296.147 187.954 284.6 176.406 284.6 162.215C284.6 148.024 296.147 136.476 310.339 136.476ZM120.537 114.809C115.857 107.707 114.1 101.962 114.472 94.982C115.179 81.771 126.021 71.021 138.641 71.021C149.489 71.021 159.833 82.759 162.864 87.221C165.513 91.212 169.971 93.62 174.761 93.704C179.55 93.829 184.093 91.491 186.883 87.598C189.966 83.297 201.076 71.021 211.356 71.021C223.977 71.021 234.821 81.77 235.528 94.983C235.901 101.946 234.142 107.695 229.458 114.819C221.879 126.343 192.972 151.195 178.757 160.214C177.504 160.197 172.67 160.195 171.503 160.21C157.249 151.098 127.861 125.922 120.537 114.809ZM39.661 136.476C53.853 136.476 65.4 148.024 65.4 162.215C65.4 176.406 53.854 187.954 39.661 187.954C25.468 187.954 13.922 176.406 13.922 162.215C13.922 148.024 25.467 136.476 39.661 136.476ZM336.938 518.98H13.06L-8.934 426.935C-8.389 426.947 -7.849 426.976 -7.302 426.976C17.753 426.976 40.119 414.31 53.465 394.905C66.81 414.308 89.177 426.976 114.232 426.976C139.287 426.976 161.653 414.31 174.999 394.905C188.344 414.308 210.711 426.976 235.766 426.976C260.822 426.976 283.187 414.31 296.533 394.905C309.878 414.308 332.245 426.976 357.3 426.976C357.848 426.976 358.387 426.945 358.932 426.935L336.938 518.98ZM357.302 397.839C333.895 397.839 314.371 379.559 312.854 356.225C312.356 348.562 305.995 342.6 298.315 342.6H294.754C287.075 342.6 280.714 348.562 280.215 356.225C278.698 379.561 259.176 397.839 235.767 397.839C212.358 397.839 192.834 379.559 191.318 356.225C190.82 348.562 184.459 342.6 176.779 342.6H173.22C165.541 342.6 159.18 348.562 158.681 356.225C157.164 379.561 137.64 397.839 114.232 397.839C90.824 397.839 71.299 379.559 69.784 356.225C69.286 348.562 62.925 342.6 55.245 342.6H51.684C44.005 342.6 37.644 348.562 37.145 356.225C35.628 379.561 16.104 397.839 -7.303 397.839C-31.875 397.839 -51.864 377.85 -51.864 353.281C-51.864 337.086 -43.287 322.55 -29.557 314.678C-29.362 314.687 -29.169 314.709 -28.973 314.709H249.838C257.885 314.709 264.407 308.185 264.407 300.14C264.407 292.095 257.884 285.571 249.838 285.571H-7.452C21.832 230.601 88.891 192.772 164.503 189.544L185.694 189.554C269.087 193.182 342.057 238.894 365.343 303.255C366.764 307.18 369.8 310.309 373.681 311.845C390.8 318.62 401.861 334.885 401.861 353.283C401.862 377.85 381.873 397.839 357.302 397.839Z" fill="black"/>
<g clip-path="url(#clip2_1_52)">
<path d="M120.341 200.474C120.341 219.855 104.63 235.565 85.25 235.565C65.87 235.565 50.159 219.854 50.159 200.474C50.159 158.356 111.179 56.635 293.458 48.447C266.477 83.636 293.458 160.349 293.458 200.474C293.458 219.855 277.747 235.565 258.367 235.565C238.987 235.565 223.276 219.854 223.276 200.474" fill="white"/>
<path d="M389.058 198.896C366.605 179.682 335.302 163.74 298.297 152.6C292.703 118.022 285.973 75.38 301.749 54.806C304.221 51.582 304.601 47.218 302.722 43.616C300.843 40.014 297.064 37.829 292.989 38.01C190.406 42.618 129.659 76.283 96.762 103.713C78.672 118.798 65.606 134.59 56.575 149.499C56.541 149.508 56.505 149.513 56.471 149.521C-29.999 172.703 -83.769 219.672 -83.964 272.15C-83.965 272.205 -83.732 275.036 -83.224 276.308L12.424 516.058C20.649 536.677 39.508 549.999 60.464 549.999H283.53C304.488 549.999 323.345 536.677 331.571 516.059C331.571 516.059 427.216 276.308 427.214 276.307C427.693 275.11 427.963 273.806 427.963 272.437C427.963 246.106 414.51 220.676 389.058 198.896ZM272.396 74.512C268.56 99.622 273.386 129.48 277.82 156.883C280.489 173.37 283.009 188.944 283.009 200.475C283.009 214.063 271.955 225.117 258.367 225.117C244.779 225.117 233.724 214.062 233.724 200.475C233.724 195.673 233.538 190.551 233.342 185.129C232.059 149.801 230.501 106.759 272.396 74.512ZM212.456 185.886C212.646 191.113 212.826 196.051 212.826 200.474C212.826 223.092 194.425 241.493 171.807 241.493C149.189 241.493 130.79 223.092 130.79 200.474C130.79 167.469 157.283 139.06 179.509 121.04C194.357 109.002 212.346 97.547 231.994 87.452C226.394 96.056 222.004 105.415 218.782 115.578C210.817 140.711 211.726 165.76 212.456 185.886ZM225.309 67.339C203.343 78.384 183.259 91.097 166.35 104.807C129.416 134.754 109.894 167.834 109.894 200.475C109.894 214.063 98.839 225.117 85.251 225.117C71.663 225.117 60.609 214.062 60.609 200.475C60.608 170.44 101.313 93.608 225.309 67.339ZM312.162 508.314C307.125 520.942 295.886 529.101 283.532 529.101H259.102L285.479 377.665C286.47 371.98 282.664 366.568 276.978 365.579C271.291 364.589 265.882 368.394 264.892 374.08L237.89 529.101H182.592V338.362C182.592 332.591 177.913 327.913 172.143 327.913C166.373 327.913 161.694 332.591 161.694 338.362V529.101H105.859L78.858 374.079C77.867 368.395 72.456 364.584 66.772 365.578C61.087 366.569 57.28 371.979 58.271 377.664L84.647 529.101H60.466C48.112 529.101 36.873 520.941 31.836 508.314L-56.765 286.234C-50.581 288.818 -45.075 292.639 -39.121 296.777C-27.034 305.178 -13.333 314.7 8.301 314.71C29.927 314.701 43.629 305.178 55.716 296.777C66.442 289.323 75.705 282.885 90.115 282.885C104.342 282.885 113.324 289.215 123.725 296.544C135.809 305.06 149.507 314.712 171.956 314.712C194.138 314.712 207.165 305.248 218.659 296.899C229.009 289.381 237.947 282.887 253.886 282.886C268.293 282.887 277.554 289.325 288.279 296.779C300.366 305.18 314.067 314.702 335.702 314.712C357.328 314.703 371.03 305.18 383.116 296.779C389.07 292.64 394.576 288.82 400.76 286.236L312.162 508.314ZM371.189 279.617C360.235 287.23 350.775 293.806 335.701 293.812C320.619 293.806 311.159 287.23 300.206 279.618C288.315 271.354 274.839 261.987 253.879 261.987C253.854 261.987 253.826 261.987 253.799 261.987C231.16 261.987 217.993 271.552 206.376 279.991C196.166 287.408 187.348 293.814 171.956 293.814C156.13 293.814 146.69 287.163 135.762 279.461C124.139 271.27 110.966 261.987 90.114 261.987C69.154 261.987 55.678 271.353 43.788 279.618C32.834 287.231 23.373 293.807 8.299 293.813C-6.782 293.807 -16.241 287.232 -27.195 279.619C-36.807 272.939 -47.459 265.543 -62.259 262.952C-59.301 245.691 -48.316 228.786 -30.048 213.568C-11.289 197.942 14.267 184.723 44.523 174.868C41.188 184.595 39.707 193.341 39.707 200.476C39.707 225.587 60.136 246.016 85.247 246.016C98.286 246.016 110.055 240.499 118.365 231.686C129.122 250.035 149.042 262.391 171.805 262.391C194.568 262.391 214.489 250.034 225.246 231.686C233.556 240.499 245.324 246.016 258.364 246.016C283.474 246.016 303.904 225.587 303.904 200.476C303.904 193.066 303.07 184.659 301.842 175.646C331.862 185.686 357.118 199.074 375.468 214.775C392.87 229.667 403.364 246.154 406.247 262.952C391.453 265.542 380.8 272.937 371.189 279.617Z" fill="black"/>
</g>
</g>
</g>
<defs>
<clipPath id="clip0_1_52">
<rect width="66" height="66" fill="white"/>
</clipPath>
<clipPath id="clip1_1_52">
<rect width="512" height="512" fill="white" transform="translate(-81 39)"/>
</clipPath>
<clipPath id="clip2_1_52">
<rect width="511.999" height="511.999" fill="white" transform="translate(-84 38)"/>
</clipPath>
</defs>
</svg>
